<?xml version="1.0" encoding="utf-8"?>
<!-- Generator: Adobe Illustrator 23.0.1, SVG Export Plug-In . SVG Version: 6.00 Build 0)  -->
<svg version="1.1" id="Layer_1" xmlns="http://www.w3.org/2000/svg" xmlns:xlink="http://www.w3.org/1999/xlink" x="0px" y="0px"
	 style="enable-background:new 0 0 703 600;" xml:space="preserve">
<style type="text/css">
	.st0{opacity:0.2;}
	.st1{opacity:0;}
	.st2{opacity:9.090909e-02;}
	.st3{opacity:0.1818;}
	.st4{opacity:0.2727;}
	.st5{opacity:0.3636;}
	.st6{opacity:0.4545;}
	.st7{opacity:0.5455;}
	.st8{opacity:0.6364;}
	.st9{opacity:0.7273;}
	.st10{opacity:0.8182;}
	.st11{opacity:0.9091;}
	.st12{fill:url(#SVGID_1_);}
	.st13{opacity:0.6;fill:url(#SVGID_2_);}
	.st14{fill:url(#SVGID_3_);}
	.st15{fill:url(#SVGID_4_);}
	.st16{fill:url(#SVGID_5_);}
	.st17{fill:url(#SVGID_6_);}
	.st18{fill:url(#SVGID_7_);}
	.st19{fill:url(#SVGID_8_);}
	.st20{fill:url(#SVGID_9_);}
	.st21{fill:#BCBEC0;}
	.st22{opacity:0.8;}
	.st23{fill:#E45D4A;}
	.st24{fill:#F49587;}
	.st25{fill:url(#SVGID_10_);}
	.st26{fill:url(#SVGID_11_);}
	.st27{fill:url(#SVGID_12_);}
	.st28{fill:url(#SVGID_13_);}
	.st29{fill:url(#SVGID_14_);}
	.st30{fill:url(#SVGID_15_);}
	.st31{fill:url(#SVGID_16_);}
	.st32{fill:url(#SVGID_17_);}
	.st33{fill:url(#SVGID_18_);}
	.st34{fill:url(#SVGID_19_);}
	.st35{fill:#58595B;}
	.st36{fill:url(#SVGID_20_);}
	.st37{fill:url(#SVGID_21_);}
	.st38{fill:url(#SVGID_22_);}
	.st39{fill:url(#SVGID_23_);}
	.st40{fill:url(#SVGID_24_);}
	.st41{fill:url(#SVGID_25_);}
	.st42{fill:url(#SVGID_26_);}
	.st43{fill:url(#SVGID_27_);}
	.st44{fill:url(#SVGID_28_);}
	.st45{fill:url(#SVGID_29_);}
	.st46{fill:url(#SVGID_30_);}
	.st47{fill:#FFFFFF;}
	.st48{fill:url(#SVGID_31_);}
	.st49{fill:#12493E;}
	.st50{fill:url(#SVGID_32_);}
	.st51{fill:url(#SVGID_33_);}
	.st52{fill:url(#SVGID_34_);}
	.st53{fill:url(#SVGID_35_);}
	.st54{fill:url(#SVGID_36_);}
	.st55{fill:url(#SVGID_37_);}
	.st56{fill:url(#SVGID_38_);}
	.st57{opacity:0.7;fill:#FFFFFF;}
	.st58{fill:url(#SVGID_39_);}
	.st59{fill:url(#SVGID_40_);}
	.st60{fill:url(#SVGID_41_);}
	.st61{fill:url(#SVGID_42_);}
	.st62{fill:url(#SVGID_43_);}
	.st63{fill:url(#SVGID_44_);}
	.st64{fill:url(#SVGID_45_);}
	.st65{fill:url(#SVGID_46_);}
	.st66{fill:url(#SVGID_47_);}
	.st67{fill:url(#SVGID_48_);}
	.st68{fill:url(#SVGID_49_);}
	.st69{fill:url(#SVGID_50_);}
	.st70{fill:url(#SVGID_51_);}
	.st71{fill:url(#SVGID_52_);}
	.st72{fill:url(#SVGID_53_);}
	.st73{fill:url(#SVGID_54_);}
	.st74{fill:#D1D3D4;}
	.st75{fill:url(#SVGID_55_);}
	.st76{fill:url(#SVGID_56_);}
	.st77{fill:url(#SVGID_57_);}
	.st78{fill:url(#SVGID_58_);}
	.st79{fill:url(#SVGID_59_);}
	.st80{fill:url(#SVGID_60_);}
	.st81{fill:url(#SVGID_61_);}
	.st82{fill:url(#SVGID_62_);}
	.st83{fill:url(#SVGID_63_);}
	.st84{fill:url(#SVGID_64_);}
	.st85{fill:url(#SVGID_65_);}
	.st86{fill:url(#SVGID_66_);}
	.st87{fill:url(#SVGID_67_);}
	.st88{fill:url(#SVGID_68_);}
	.st89{fill:url(#SVGID_69_);}
	.st90{fill:url(#SVGID_70_);}
	.st91{fill:url(#SVGID_71_);}
	.st92{fill:url(#SVGID_72_);}
	.st93{fill:url(#SVGID_73_);}
	.st94{fill:url(#SVGID_74_);}
	.st95{fill:url(#SVGID_75_);}
	.st96{fill:url(#SVGID_76_);}
	.st97{fill:url(#SVGID_77_);}
	.st98{fill:url(#SVGID_78_);}
	.st99{fill:url(#SVGID_79_);}
	.st100{fill:url(#SVGID_80_);}
	.st101{fill:url(#SVGID_81_);}
	.st102{fill:url(#SVGID_82_);}
	.st103{fill:url(#SVGID_83_);}
	.st104{fill:url(#SVGID_84_);}
	.st105{fill:url(#SVGID_85_);}
	.st106{fill:url(#SVGID_86_);}
	.st107{fill:url(#SVGID_87_);}
	.st108{fill:url(#SVGID_88_);}
</style>
<g>
	<g class="st0">
		<path class="st1" d="M580.6,506.4c-4.9,0-9.3-1.1-12.8-3.1l-78-44.4l-78-44.4c-4.7-2.7-7.4-7-7.4-11.7c0-5.2,3.2-10.1,8.9-13.3
			l51-28.7c4.4-2.6,10-4,15.6-4c4.9,0,9.3,1.1,12.8,3.1l78,44.4l78,44.4c4.7,2.7,7.4,7,7.4,11.7c0,5.2-3.2,10.1-8.9,13.3l-51,28.7
			C591.8,505,586.3,506.4,580.6,506.4z"/>
		<path class="st2" d="M414.7,390.6l13.8-7.7c0.6-0.3,26.5-14.5,27-14.2l8.9-4.4c4-2.3,9.9-3.1,15.1-3.1c4.4,0,9.2,1.4,12.4,3.2
			l62.5,35.6l13.3,7.6l75.8,43.2c2.4,1.4,4.7,3.6,5.9,5.7c0.9,1.7,1.5,3.5,1.5,5.5c0.2,5-2.9,9.8-8.5,13l-13.8,7.7
			c-0.6,0.3-26.5,14.5-27,14.2l-8.9,4.4c-4,2.3-9.9,3.1-15.1,3.1c-4.4,0-9.2-1.4-12.4-3.2l-62.5-35.6l-13.3-7.6l-75.8-43.2
			c-2.4-1.4-4.7-3.6-5.9-5.7c-0.9-1.7-1.5-3.5-1.5-5.5C406.1,398.5,409.1,393.8,414.7,390.6z"/>
		<path class="st3" d="M416.1,391.7l13.5-7.4c1.1-0.7,25.4-13.4,26.4-12.9l8.7-3.6c3.6-2.1,9.9-2.2,14.5-2.2c4,0,9.1,1.7,12,3.4
			l60.6,34.6l12.9,7.4l73.5,41.9c2.2,1.3,4.7,3.5,5.8,5.5c0.9,1.6,1.6,3.3,1.7,5.2c0.3,4.8-2.6,9.4-8.1,12.6l-13.5,7.4
			c-1.1,0.7-25.4,13.4-26.4,12.9l-8.7,3.6c-3.6,2.1-9.9,2.2-14.5,2.2c-4,0-9.1-1.7-12-3.4L502,464.2l-12.9-7.4l-73.5-41.9
			c-2.2-1.3-4.7-3.5-5.8-5.5c-0.9-1.6-1.6-3.3-1.7-5.2C407.7,399.4,410.6,394.8,416.1,391.7z"/>
		<path class="st4" d="M417.4,392.8l13.1-7.2c1.7-1,24.3-12.4,25.8-11.5l8.4-2.8c3.2-1.9,9.9-1.4,14-1.4c3.6,0,9,2,11.5,3.5L549,407
			l12.5,7.2l71.3,40.7c2,1.1,4.7,3.5,5.7,5.2c0.9,1.6,1.7,3.2,1.8,4.9c0.4,4.6-2.3,9.1-7.7,12.2l-13.1,7.2
			c-1.7,1-24.3,12.4-25.8,11.5l-8.4,2.8c-3.2,1.9-9.9,1.4-14,1.4c-3.6,0-9-2-11.5-3.5L501.2,463l-12.5-7.2l-71.3-40.7
			c-2-1.1-4.7-3.5-5.7-5.2c-0.9-1.6-1.7-3.2-1.8-4.9C409.3,400.4,412.1,395.8,417.4,392.8z"/>
		<path class="st5" d="M418.8,393.9l12.7-6.9c2.3-1.3,23.3-11.3,25.2-10.2l8.1-2c2.8-1.6,9.9-0.5,13.4-0.5c3.1,0,8.8,2.3,11.1,3.6
			l56.9,32.5l12.1,6.9l69.1,39.5c1.7,1,4.7,3.5,5.7,4.9c1,1.5,1.7,3,2,4.7c0.6,4.4-2,8.8-7.3,11.9l-12.7,6.9
			c-2.3,1.3-23.3,11.3-25.2,10.2l-8.1,2c-2.8,1.6-9.9,0.5-13.4,0.5c-3.1,0-8.8-2.3-11.1-3.6l-56.9-32.5l-12.1-6.9l-69.1-39.5
			c-1.7-1-4.7-3.5-5.7-4.9c-1-1.5-1.7-3-2-4.7C411,401.3,413.6,396.9,418.8,393.9z"/>
		<path class="st6" d="M420.2,395l12.4-6.6c2.8-1.6,22.2-10.3,24.6-8.9l7.9-1.2c2.4-1.4,9.8,0.4,12.9,0.4c2.7,0,8.7,2.7,10.6,3.8
			l55.1,31.5l11.8,6.7l66.9,38.3c1.5,0.8,4.8,3.4,5.6,4.6c1,1.4,1.8,2.8,2.1,4.4c0.7,4.2-1.7,8.5-6.9,11.5l-12.4,6.6
			c-2.8,1.6-22.2,10.3-24.6,8.9l-7.9,1.2c-2.4,1.4-9.8-0.4-12.9-0.4c-2.7,0-8.7-2.7-10.6-3.8l-55.1-31.5l-11.8-6.7L421,415.5
			c-1.5-0.8-4.8-3.4-5.6-4.6c-1-1.4-1.8-2.8-2.1-4.4C412.6,402.3,415,397.9,420.2,395z"/>
		<path class="st7" d="M421.6,396.1l12-6.3c3.4-2,21.1-9.2,24-7.5l7.6-0.4c2-1.2,9.8,1.2,12.4,1.2c2.2,0,8.6,3,10.2,3.9l53.3,30.5
			l11.4,6.5l64.6,37c1.2,0.7,4.8,3.3,5.5,4.3c1,1.4,1.9,2.6,2.3,4.1c0.9,4-1.4,8.2-6.5,11.1l-12,6.3c-3.4,2-21.1,9.2-24,7.5
			l-7.6,0.4c-2,1.2-9.8-1.2-12.4-1.2c-2.2,0-8.6-3-10.2-3.9l-53.3-30.5l-11.4-6.5l-64.6-37c-1.2-0.7-4.8-3.3-5.5-4.3
			c-1-1.4-1.9-2.6-2.3-4.1C414.2,403.2,416.5,399,421.6,396.1z"/>
		<path class="st8" d="M423,397.1l11.6-6.1c3.9-2.3,20-8.2,23.4-6.2l7.3,0.4c1.6-0.9,9.8,2.1,11.8,2.1c1.8,0,8.5,3.3,9.7,4
			l51.4,29.5l11,6.3l62.4,35.8c1,0.6,4.8,3.3,5.4,4.1c1,1.3,2,2.5,2.4,3.9c1.1,3.8-1.1,7.9-6.1,10.8l-11.6,6.1
			c-3.9,2.3-20,8.2-23.4,6.2l-7.3-0.4c-1.6,0.9-9.8-2.1-11.8-2.1c-1.8,0-8.5-3.3-9.7-4l-51.4-29.5l-11-6.3l-62.4-35.8
			c-1-0.6-4.8-3.3-5.4-4.1c-1-1.3-2-2.5-2.4-3.9C415.9,404.1,418,400,423,397.1z"/>
		<path class="st9" d="M424.4,398.2l11.2-5.8c4.5-2.6,18.9-7.1,22.8-4.9l7.1,1.2c1.2-0.7,9.8,3,11.3,3c1.3,0,8.3,3.6,9.3,4.2
			l49.6,28.5l10.6,6.1l60.2,34.6c0.7,0.4,5,3.1,5.3,3.8c1.3,1.1,2.1,2.3,2.5,3.6c1.2,3.6-0.8,7.6-5.7,10.4l-11.2,5.8
			c-4.5,2.6-18.9,7.1-22.8,4.9l-7.1-1.2c-1.2,0.7-9.8-3-11.3-3c-1.3,0-8.3-3.6-9.3-4.2l-49.6-28.5l-10.6-6.1L426.6,416
			c-0.7-0.4-5-3.1-5.3-3.8c-1.3-1.1-2.1-2.3-2.5-3.6C417.5,405.1,419.5,401.1,424.4,398.2z"/>
		<path class="st10" d="M425.7,399.3l10.9-5.5c5.1-2.9,17.8-6.1,22.2-3.5l6.8,2c0.8-0.5,9.7,3.9,10.8,3.9c0.9,0,8.2,3.9,8.8,4.3
			l47.8,27.5l10.2,5.9l58,33.3c0.5,0.3,5,3.1,5.3,3.5c1.3,1,2.2,2.1,2.7,3.3c1.4,3.4-0.5,7.3-5.3,10l-10.9,5.5
			c-5.1,2.9-17.8,6.1-22.2,3.5l-6.8-2c-0.8,0.5-9.7-3.9-10.8-3.9c-0.9,0-8.2-3.9-8.8-4.3l-47.8-27.5l-10.2-5.9l-58-33.3
			c-0.5-0.3-5-3.1-5.3-3.5c-1.3-1-2.2-2.1-2.7-3.3C419.1,406,420.9,402.1,425.7,399.3z"/>
		<path class="st11" d="M427.1,400.4l10.5-5.2c5.6-3.3,16.7-5,21.6-2.2l6.5,2.8c0.4-0.2,9.7,4.7,10.2,4.7c0.4,0,8.1,4.3,8.4,4.5
			l45.9,26.5l9.8,5.6l55.7,32.1c0.2,0.1,5.1,3,5.2,3.2c1.3,0.9,2.3,1.9,2.8,3.1c1.5,3.2-0.2,7-4.9,9.7l-10.5,5.2
			c-5.6,3.3-16.7,5-21.6,2.2l-6.5-2.8c-0.4,0.2-9.7-4.7-10.2-4.7c-0.4,0-8.1-4.3-8.4-4.5l-45.9-26.5l-9.8-5.6l-55.7-32.1
			c-0.2-0.1-5.1-3-5.2-3.2c-1.3-0.9-2.3-1.9-2.8-3.1C420.7,406.9,422.4,403.2,427.1,400.4z"/>
		<path d="M563,492.2l-68-39.3l-68-39.3c-5.4-3.1-4.7-8.5,1.5-12.1l10.1-4.9c6.2-3.6,15.6-4,21-0.9l68,39.3l68,39.3
			c5.4,3.1,4.7,8.5-1.5,12.1l-10.1,4.9C577.8,494.9,568.4,495.3,563,492.2z"/>
	</g>
	<g>
		<linearGradient id="SVGID_1_" gradientUnits="userSpaceOnUse" x1="380.6084" y1="44.549" x2="535.967" y2="313.6378">
			<stop  offset="5.555560e-02" style="stop-color:#218672"/>
			<stop  offset="0.41" style="stop-color:#218672"/>
			<stop  offset="0.4709" style="stop-color:#218672"/>
			<stop  offset="0.4887" style="stop-color:#258A76"/>
			<stop  offset="0.5081" style="stop-color:#339581"/>
			<stop  offset="0.5282" style="stop-color:#48A795"/>
			<stop  offset="0.5303" style="stop-color:#4BA997"/>
			<stop  offset="0.5645" style="stop-color:#359683"/>
			<stop  offset="0.5982" style="stop-color:#268A76"/>
			<stop  offset="0.6263" style="stop-color:#218672"/>
			<stop  offset="0.8131" style="stop-color:#218672"/>
			<stop  offset="1" style="stop-color:#218672"/>
		</linearGradient>
		<path class="st12" d="M563.1,482.7l-118.9-68.7c-13.4-7.7-24.3-28.5-24.3-46.4V50.9c0-9.1-7.5-11.1-2.9-14.4
			c0.2-0.1,10.6-4.9,10.8-4.9c4.9-1.9,10.1-2.7,16.4,1l118.9,68.7c13.4,7.7,24.3,28.5,24.3,46.4v316.7c0,9.5-3.1,16.3-8,19.4
			c-0.3,0.2-12.9,6.2-13.2,6.3C561.9,491.5,569,486.1,563.1,482.7z"/>
		<radialGradient id="SVGID_2_" cx="573.2639" cy="133.0448" r="171.7614" gradientUnits="userSpaceOnUse">
			<stop  offset="0" style="stop-color:#319380"/>
			<stop  offset="1" style="stop-color:#267969"/>
		</radialGradient>
		<path class="st13" d="M553.9,487l-118.9-68.7c-13.4-7.7-24.3-28.5-24.3-46.4V55.1c0-17.9,10.9-26.1,24.3-18.4l118.9,68.7
			c13.4,7.7,24.3,28.5,24.3,46.4v316.7C578.2,486.5,567.3,494.7,553.9,487z"/>
		<linearGradient id="SVGID_3_" gradientUnits="userSpaceOnUse" x1="587.1151" y1="292.6982" x2="112.2856" y2="144.0558">
			<stop  offset="0.1881" style="stop-color:#277A69"/>
			<stop  offset="0.9343" style="stop-color:#1E7C69"/>
		</linearGradient>
		<path class="st14" d="M551.8,488.1l-118.9-68.7c-13.4-7.7-24.3-28.5-24.3-46.4V56.3c0-17.9,10.9-26.1,24.3-18.4l118.9,68.7
			c13.4,7.7,24.3,28.5,24.3,46.4v316.7C576,487.6,565.2,495.9,551.8,488.1z"/>
		<linearGradient id="SVGID_4_" gradientUnits="userSpaceOnUse" x1="593.3033" y1="476.4662" x2="352.1725" y2="-33.0468">
			<stop  offset="0" style="stop-color:#4BA997"/>
			<stop  offset="0.5316" style="stop-color:#329481"/>
			<stop  offset="1" style="stop-color:#218672"/>
		</linearGradient>
		<path class="st15" d="M411.8,375.1V58c0-15.7,9.5-22.9,21.3-16.1l118.3,68.3c11.8,6.8,21.3,25,21.3,40.7V468
			c0,15.7-9.5,22.9-21.3,16.1l-118.3-68.3C421.4,409,411.8,390.8,411.8,375.1z"/>
		<linearGradient id="SVGID_5_" gradientUnits="userSpaceOnUse" x1="416.5694" y1="263.0121" x2="567.9998" y2="263.0121">
			<stop  offset="0" style="stop-color:#218672"/>
			<stop  offset="0.4154" style="stop-color:#218672"/>
			<stop  offset="0.4447" style="stop-color:#1F826E"/>
			<stop  offset="0.8137" style="stop-color:#095544"/>
			<stop  offset="1" style="stop-color:#004433"/>
		</linearGradient>
		<path class="st16" d="M416.6,377.1V61.5c0-13.1,8-19.2,17.8-13.5l115.8,66.8c9.8,5.7,17.8,20.9,17.8,34.1v315.5
			c0,13.1-8,19.2-17.8,13.5l-115.8-66.8C424.5,405.4,416.6,390.2,416.6,377.1z"/>
		<linearGradient id="SVGID_6_" gradientUnits="userSpaceOnUse" x1="556.219" y1="471.5461" x2="430.2971" y2="60.8283">
			<stop  offset="0" style="stop-color:#FFFFFF"/>
			<stop  offset="1" style="stop-color:#FFFFFF"/>
		</linearGradient>
		<path class="st17" d="M435.7,51.5c-9.3-5.4-16.8-1.1-16.8,9.6v319.1c0,10.6,7.5,23.6,16.8,29l113.1,65.3
			c9.3,5.4,16.8,1.1,16.8-9.6V145.8c0-10.6-7.5-23.6-16.8-29L435.7,51.5z"/>
		
			<linearGradient id="SVGID_7_" gradientUnits="userSpaceOnUse" x1="-293.7806" y1="9989.208" x2="-266.6883" y2="9989.208" gradientTransform="matrix(-0.5 1.4434 -0.866 0.5 9093.4863 -4376.6602)">
			<stop  offset="0" style="stop-color:#208672"/>
			<stop  offset="1" style="stop-color:#157663"/>
		</linearGradient>
		<path class="st18" d="M579.2,226.3v-21.4c0-2.7,1.7-5.9,3.7-7.1l0,0c2.1-1.2,3.7,0.1,3.7,2.8V222c0,2.7-1.7,5.9-3.7,7.1l0,0
			C580.9,230.3,579.2,229,579.2,226.3z"/>
		<linearGradient id="SVGID_8_" gradientUnits="userSpaceOnUse" x1="589.9224" y1="213.7531" x2="571.2396" y2="212.9495">
			<stop  offset="0" style="stop-color:#208672"/>
			<stop  offset="1" style="stop-color:#339582"/>
		</linearGradient>
		<path class="st19" d="M581.5,228.7c-1.1,0-1.4-1.3-1.4-2.5v-21.4c0-2.4,1.5-5.4,3.3-6.4c0.4-0.2,0.8-0.3,1.1-0.3
			c1.1,0,1.4,1.3,1.4,2.4V222c0,2.4-1.5,5.4-3.3,6.4C582.2,228.6,581.8,228.7,581.5,228.7z"/>
		<radialGradient id="SVGID_9_" cx="580.5281" cy="205.782" r="10.9723" gradientUnits="userSpaceOnUse">
			<stop  offset="0" style="stop-color:#711F56"/>
			<stop  offset="0.1614" style="stop-color:#6C1E52"/>
			<stop  offset="0.3626" style="stop-color:#5C1946"/>
			<stop  offset="0.5849" style="stop-color:#431233"/>
			<stop  offset="0.8208" style="stop-color:#200918"/>
			<stop  offset="1" style="stop-color:#000000"/>
		</radialGradient>
		<path class="st20" d="M581.1,226.8v-21.4c0-2.4,1.5-5.4,3.3-6.4c0.3-0.2,0.7-0.3,1-0.3c-0.2-0.3-0.5-0.6-1-0.6
			c-0.3,0-0.7,0.1-1.1,0.3c-1.8,1-3.3,4-3.3,6.4v21.4c0,1.1,0.4,2.4,1.4,2.4c0,0,0.1,0,0.1,0C581.3,228.2,581.1,227.5,581.1,226.8z"
			/>
		<path class="st21" d="M548.8,116.8L435.7,51.5c-9.3-5.4-16.8-1.1-16.8,9.6v319.1c0,10.6,7.5,23.6,16.8,29l113.1,65.3
			c9.3,5.4,16.8,1.1,16.8-9.6V145.8C565.6,135.2,558.1,122.2,548.8,116.8z M564.2,464.9c0,3.3-0.8,6-2.2,7.9
			c-1.3,1.7-3.3,2.6-5.5,2.6h0c-2.1,0-4.4-0.7-6.8-2.1l-113.1-65.3c-8.9-5.1-16.1-17.5-16.1-27.7V61.1c0-6.4,3-10.4,7.8-10.4
			c2.1,0,4.4,0.7,6.8,2.1l113.1,65.3c8.9,5.1,16.1,17.5,16.1,27.7V464.9z"/>
	</g>
	<g class="st22">
		<path class="st23" d="M546.8,180.4l18.8,10.8v-4.1l-18.8-10.8v-60.6l-3.5-2v60.6l-11.7-6.7l-10.9-28.4L418.9,80.4v4.1l22.2,12.8
			v53.3l-22.2-12.8v4.1l22.2,12.8V191l-22.2-12.9v4.1l25.8,14.9v-40.4l76.2,44v80.7l-9.5-5.5l-32.8,9.9l-59.7-34.5v4.1l40.2,23.2v53
			l-40.2,17.9v3.9l41.6-18.5l36.8,62.8l-34.8,26.9l3.3,1.9l58.9-45.6l18.6,10.7v77.6h3.5v-75.5l18.5,10.6l0.3-0.5v-3.4l-18.8-10.8
			v-52l18.8,10.8v-4.1l-18.8-10.8v-33l18.8,10.8v-4.1l-18.8-10.8v-80.7l18.8,10.8v-4.1l-18.8-10.8V180.4z M462.7,280.7l14.9,8.6
			l0.7,0.4l32.8-9.9l9.9,5.7v33l-14-8.1l-44.2,19.7V280.7z M543.3,387.6l-18.9-10.8l-24.3,18.8l-36.4-62.1l42.9-19.1l14.2,8.2v0.1
			h0.2l22.2,12.8V387.6z M543.3,331.4l-18.9-10.9v-33l18.9,10.9V331.4z M543.3,294.3l-18.9-10.9v-80.7l18.9,10.9V294.3z
			 M543.3,209.6l-98.6-56.9V99.4l73.1,42.2l10.9,28.4l14.5,8.4V209.6z"/>
		<polygon class="st24" points="556.5,474.6 562.8,471.5 509.9,363.5 509.9,308.6 490.9,273.2 490.9,83.4 483.9,79.3 483.9,275 
			502.8,310.4 502.8,365.2 		"/>
	</g>
	<linearGradient id="SVGID_10_" gradientUnits="userSpaceOnUse" x1="552.3567" y1="439.6805" x2="588.5447" y2="480.2816">
		<stop  offset="0" style="stop-color:#FFFFFF"/>
		<stop  offset="1" style="stop-color:#000000"/>
	</linearGradient>
	<path class="st25" d="M521.7,467.1c0,0,22.7-14,37.1-27.4c13.2-12.4,21.2-30.9,21.2-30.9s7.1,55.6-3.5,65.3
		C565.9,483.9,521.7,467.1,521.7,467.1z"/>
	<g>
		<g>
			<linearGradient id="SVGID_11_" gradientUnits="userSpaceOnUse" x1="373.2477" y1="283.3159" x2="488.4014" y2="154.3057">
				<stop  offset="0" style="stop-color:#E45D4A"/>
				<stop  offset="0.9189" style="stop-color:#E86C58"/>
				<stop  offset="1" style="stop-color:#E86E5A"/>
			</linearGradient>
			<path class="st26" d="M480.6,220.6V234c0,4.2-2.5,7.9-6.4,9.5c-9.2,3.6-19.5,2.7-27.8-2.5l-37.1-24.4c-7.1-4.4-7.3-14.5-0.8-19.3
				V159l-12.3,7.4c-25.4,15.2-25.2,52.1,0.4,67.1l36.6,21.3c15.7,9.1,35.1,8.6,50.3-1.4c4.2-2.7,6.8-7.3,7-12.3l0.1-14.9
				L480.6,220.6z"/>
			<path class="st23" d="M479.6,218.8V234c0,3.8-2.3,7.1-5.8,8.5c-8.8,3.5-18.9,2.6-26.9-2.4l-37.1-24.4c-3.2-2-5.1-5.5-5-9.4
				c0.1-3.1,1.4-5.8,3.7-7.8v-2.5c-3.5,2.3-5.6,6-5.7,10.2c-0.1,4.5,2.1,8.7,6,11.1l37.1,24.4c8.6,5.4,19.3,6.3,28.7,2.6
				c4.3-1.7,7.1-5.8,7.1-10.4v-11.8l7.8,4.4l-0.1,14.3c-0.2,4.6-2.7,8.9-6.6,11.5c-14.9,9.8-33.8,10.4-49.2,1.4L397,232.6
				c-11.7-6.8-18.8-19-18.8-32.6c-0.1-13.6,6.8-25.8,18.5-32.8l11.8-7.1v-2.3l-12.9,7.7c-12.3,7.3-19.5,20.2-19.4,34.5
				c0.1,14.3,7.5,27.1,19.8,34.3l36.6,21.3c7.6,4.5,16.1,6.7,24.5,6.7c9.3,0,18.6-2.7,26.8-8.1c4.4-2.9,7.2-7.8,7.5-13.1l0.1-15.5
				L479.6,218.8z"/>
		</g>
		<radialGradient id="SVGID_12_" cx="366.3905" cy="256.1795" r="78.6136" gradientUnits="userSpaceOnUse">
			<stop  offset="0" style="stop-color:#FFFFFF"/>
			<stop  offset="1" style="stop-color:#000000"/>
		</radialGradient>
		<path class="st27" d="M463.3,252.5l-0.2-2c2.6-0.2,5.2-0.7,7.7-1.4l0.6,1.9C468.8,251.7,466.1,252.2,463.3,252.5z M455.2,252.4
			c-2.7-0.3-5.4-0.9-8-1.7l0.6-1.9c2.5,0.8,5,1.3,7.6,1.6L455.2,252.4z M479,248l-0.9-1.8c1-0.5,2-1.1,3-1.7
			c1.1-0.7,2.1-1.7,2.8-2.8l1.7,1.1c-0.9,1.3-2.1,2.5-3.4,3.4C481.1,246.8,480.1,247.4,479,248z M439.7,247.5l-7-3.9l1-1.7l7,3.9
			L439.7,247.5z M425.6,239.7l-7-3.9l1-1.7l7,3.9L425.6,239.7z M409.8,230.9l-2.4-1.3c-1.6-0.9-3.1-1.9-4.5-3l1.2-1.6
			c1.3,1,2.7,2,4.2,2.8l2.4,1.3L409.8,230.9z M397.2,220.7c-1.6-2.2-3-4.6-4-7.2l1.9-0.7c0.9,2.4,2.2,4.7,3.7,6.7L397.2,220.7z
			 M391.3,205.5c-0.1-0.9-0.1-1.9-0.1-2.9c0-1.9,0.1-3.7,0.4-5.4l2,0.3c-0.3,1.6-0.4,3.2-0.4,4.8c0,1.1,0.1,2,0.1,2.9L391.3,205.5z
			 M395.8,190.2l-1.8-0.9c1.2-2.5,2.7-4.8,4.5-6.9l1.5,1.3C398.3,185.7,396.9,187.9,395.8,190.2z"/>
	</g>
	<g>
		<linearGradient id="SVGID_13_" gradientUnits="userSpaceOnUse" x1="365.2429" y1="307.6395" x2="442.0319" y2="631.5653">
			<stop  offset="0" style="stop-color:#CA2F07"/>
			<stop  offset="0.244" style="stop-color:#D03B16"/>
			<stop  offset="0.7145" style="stop-color:#DE593F"/>
			<stop  offset="1" style="stop-color:#E86E5A"/>
		</linearGradient>
		<path class="st28" d="M605.3,302.7L588,288.6v47.3c28.1,24,31.9,66.1,8.3,94.7v0c-40.2,48.9-110,61.4-164.6,29.5L228.8,341.6
			l-107.4,63.6l223.5,128.6c93.7,53.9,213,28.7,276.9-58.5l4.7-6.4C664.8,416.7,655.5,343.6,605.3,302.7z"/>
		<linearGradient id="SVGID_14_" gradientUnits="userSpaceOnUse" x1="117.8984" y1="425.3691" x2="651.827" y2="425.3691">
			<stop  offset="0" style="stop-color:#CA2F07"/>
			<stop  offset="0.244" style="stop-color:#D03B16"/>
			<stop  offset="0.7145" style="stop-color:#DE593F"/>
			<stop  offset="1" style="stop-color:#E86E5A"/>
		</linearGradient>
		<path class="st29" d="M606.4,301.3l-17.9-14.6l-0.2,0.3v4.1l15.9,12.9c49.5,40.4,58.7,112.3,20.9,163.9l-4.7,6.4
			c-63.5,86.6-181.5,111.6-274.6,58L124.9,405.3l103.9-61.6l202,118c55.7,32.5,125.9,20,166.9-29.9c24.2-29.5,20.1-73.3-9.2-97.7
			l-0.2,0.3v4.2c25.9,23.5,29.1,63.7,6.7,91c-39.9,48.5-108.1,60.7-162.4,29.1L229.7,340.1l-0.9-0.5l-110.9,65.7L344,535.4
			c33.6,19.3,70.3,28.6,106.7,28.6c66.1,0,130.9-30.7,172.6-87.6l4.7-6.4C666.8,417,657.3,342.9,606.4,301.3z"/>
	</g>
	<g>
		<radialGradient id="SVGID_15_" cx="610.8757" cy="649.8337" r="273.8845" gradientUnits="userSpaceOnUse">
			<stop  offset="0" style="stop-color:#FFFFFF"/>
			<stop  offset="1" style="stop-color:#000000"/>
		</radialGradient>
		<polygon class="st30" points="215.9,401 209.8,397.5 211.5,394.4 217.7,398 		"/>
		<radialGradient id="SVGID_16_" cx="610.8795" cy="649.8329" r="273.8857" gradientUnits="userSpaceOnUse">
			<stop  offset="0" style="stop-color:#FFFFFF"/>
			<stop  offset="1" style="stop-color:#000000"/>
		</radialGradient>
		<path class="st31" d="M477.7,521.2l-0.1-3.5c4.5-0.2,9.1-0.5,13.7-1.1l0.4,3.5C487,520.6,482.3,521,477.7,521.2z M463.7,521.1
			c-4.6-0.2-9.3-0.6-13.9-1.2l0.4-3.5c4.5,0.6,9.1,1,13.7,1.2L463.7,521.1z M505.5,517.9l-0.7-3.5c4.5-0.9,8.9-2,13.3-3.2l1,3.4
			C514.6,515.9,510,517,505.5,517.9z M436,517.7c-4.5-0.9-9.1-2.1-13.6-3.4l1-3.4c4.4,1.3,8.8,2.4,13.3,3.3L436,517.7z M532.3,510.2
			l-1.2-3.3c4.3-1.6,8.5-3.4,12.6-5.3l1.5,3.2C541,506.7,536.7,508.6,532.3,510.2z M409.2,509.8c-4.3-1.7-8.7-3.5-12.8-5.5l1.5-3.2
			c4.1,2,8.3,3.8,12.6,5.4L409.2,509.8z M557.6,498.3l-1.7-3.1c4-2.3,7.9-4.7,11.6-7.3l2,2.9C565.7,493.5,561.7,496,557.6,498.3z
			 M384,497.7l-12-6.9l1.8-3.1l12,6.9L384,497.7z M359.9,483.9l-12-6.9l1.8-3.1l12,6.9L359.9,483.9z M580.7,482.6l-2.2-2.8
			c3.5-2.8,7-5.9,10.3-9l2.4,2.6C587.9,476.6,584.4,479.7,580.7,482.6z M335.9,470.1l-12-6.9l1.8-3.1l12,6.9L335.9,470.1z
			 M601,463.4l-2.6-2.4c3-3.4,6-6.9,8.7-10.6l2.8,2.1C607.1,456.3,604.1,459.9,601,463.4z M311.9,456.3l-12-6.9l1.8-3.1l12,6.9
			L311.9,456.3z M287.9,442.5l-12-6.9l1.8-3.1l12,6.9L287.9,442.5z M617.9,441.3l-2.9-1.9c2.5-3.7,4.7-7.6,6.6-11.5l3.1,1.5
			C622.8,433.5,620.5,437.5,617.9,441.3z M263.9,428.7l-12-6.9l1.8-3.1l12,6.9L263.9,428.7z M629.2,416.4l-3.2-1
			c1.2-4.1,2.2-8.4,2.8-12.7l3.4,0.5C631.5,407.7,630.5,412.1,629.2,416.4z M239.9,414.8l-12-6.9l1.8-3.1l12,6.9L239.9,414.8z
			 M629.6,389.8c0-4.3-0.4-8.7-1.1-13l3.3-0.5c0.7,4.4,1.1,9,1.1,13.5L629.6,389.8z M625.5,364.2c-1.3-4.1-2.9-8.2-4.9-12.1l3-1.5
			c2,4,3.7,8.3,5,12.5L625.5,364.2z M614,340.9c-2.2-3.1-4.6-6.2-7.2-9l-1-0.9l2.3-2.5l1.1,1c2.8,3.1,5.3,6.2,7.6,9.5L614,340.9z"/>
		<radialGradient id="SVGID_17_" cx="610.8795" cy="649.8342" r="273.8869" gradientUnits="userSpaceOnUse">
			<stop  offset="0" style="stop-color:#FFFFFF"/>
			<stop  offset="1" style="stop-color:#000000"/>
		</radialGradient>
		<polygon class="st32" points="600.2,325.1 595.7,321.1 595.5,316.8 602.2,322.9 		"/>
	</g>
	<g>
		<radialGradient id="SVGID_18_" cx="385.3275" cy="407.4737" r="6.819" gradientUnits="userSpaceOnUse">
			<stop  offset="0" style="stop-color:#EEEBF2"/>
			<stop  offset="0.5808" style="stop-color:#D4D1D8"/>
			<stop  offset="0.9392" style="stop-color:#A5A6B9"/>
			<stop  offset="1" style="stop-color:#9D9EB3"/>
		</radialGradient>
		<path class="st33" d="M381.9,406.6l0.6,9.2c0.1,1.4,1.6,2.2,2.8,1.4l5.8-3.6c0.6-0.4,1-1.1,0.9-1.8l-1.2-9.2
			c-0.2-1.4-1.7-2.1-2.8-1.3l-5.2,3.5C382.2,405.4,381.8,406,381.9,406.6z"/>
		<radialGradient id="SVGID_19_" cx="385.061" cy="406.8519" r="6.546" gradientUnits="userSpaceOnUse">
			<stop  offset="0" style="stop-color:#FFFFFF"/>
			<stop  offset="1" style="stop-color:#000000"/>
		</radialGradient>
		<path class="st34" d="M383.5,417.1l-0.6-9.2c0-0.7,0.3-1.3,0.8-1.6l5.2-3.5c0.6-0.4,1.3-0.4,1.8-0.1c-0.3-1.3-1.7-1.9-2.8-1.2
			l-5.2,3.5c-0.5,0.4-0.8,1-0.8,1.6l0.6,9.2c0,0.7,0.5,1.3,1.1,1.5C383.5,417.3,383.5,417.2,383.5,417.1z"/>
		<path class="st0" d="M130.1,403.9L300,502c22.3,12.7,49.8,12.7,72-0.2l30.5-17.6c3.1-1.8,3.1-6.3,0-8.1L199.9,357.9
			c-1.4-0.8-3.2-0.8-4.7,0l-65.1,37.9C127,397.7,127,402.1,130.1,403.9z"/>
		<polygon class="st35" points="292.3,478.5 316.3,464.6 291.2,460 		"/>
		<polygon class="st35" points="156.8,402 180.8,388.1 155.7,383.6 		"/>
		<g>
			<linearGradient id="SVGID_20_" gradientUnits="userSpaceOnUse" x1="191.7461" y1="421.9149" x2="166.3896" y2="387.9372">
				<stop  offset="5.555560e-02" style="stop-color:#2D2F32"/>
				<stop  offset="0.1544" style="stop-color:#43464A"/>
				<stop  offset="0.2525" style="stop-color:#5D6066"/>
				<stop  offset="0.4798" style="stop-color:#1E1F21"/>
				<stop  offset="1" style="stop-color:#46484D"/>
			</linearGradient>
			<path class="st36" d="M195.1,413c0,4.5-1.5,7.6-4.1,9.2c-0.1,0-7.9,4.6-8,4.6c-2.6,1.5-0.9-1.9-4.9-4.1
				c-8-4.6-14.5-15.8-14.5-24.9c0-4.5-4.2-4.6-1.6-6.1c0.1,0,8.4-4.7,8.5-4.7c2.6-1.4,6.2-1.2,10.1,1.1
				C188.6,392.7,195.1,403.8,195.1,413z"/>
			<linearGradient id="SVGID_21_" gradientUnits="userSpaceOnUse" x1="157.8175" y1="409.3794" x2="186.7186" y2="409.3794">
				<stop  offset="3.535350e-02" style="stop-color:#1E1F21"/>
				<stop  offset="0.3101" style="stop-color:#2C2E30"/>
				<stop  offset="0.84" style="stop-color:#515359"/>
				<stop  offset="1" style="stop-color:#5D6066"/>
			</linearGradient>
			<path class="st37" d="M186.7,417.7c0,9.2-6.5,12.8-14.5,8.2c-8-4.6-14.5-15.8-14.5-24.9c0-9.2,6.5-12.8,14.5-8.2
				C180.2,397.4,186.7,408.6,186.7,417.7z"/>
			<radialGradient id="SVGID_22_" cx="175.2434" cy="408.8916" r="15.6118" gradientUnits="userSpaceOnUse">
				<stop  offset="0" style="stop-color:#FFFFFF"/>
				<stop  offset="1" style="stop-color:#000000"/>
			</radialGradient>
			<path class="st38" d="M173,392.5c-3.8-2.2-7.3-2.5-9.9-1.2c2.4-0.7,5.4-0.2,8.6,1.7c8,4.6,14.5,15.8,14.5,24.9
				c0,4.8-1.8,8-4.6,9.5c3.5-1,5.8-4.5,5.8-9.9C187.4,408.2,180.9,397.1,173,392.5z"/>
			<linearGradient id="SVGID_23_" gradientUnits="userSpaceOnUse" x1="161.6192" y1="409.6173" x2="183.8761" y2="409.6173">
				<stop  offset="0" style="stop-color:#BCBEC0"/>
				<stop  offset="1" style="stop-color:#E6E7E8"/>
			</linearGradient>
			<path class="st39" d="M172.7,396.8c-6.1-3.5-11.1-0.7-11.1,6.3c0,7.1,5,15.6,11.1,19.2c6.1,3.5,11.1,0.7,11.1-6.3
				S178.9,400.4,172.7,396.8z M177,410.9l3.5-0.3c0.5,0,1.2,0.6,1.3,1.4c0.2,1,0.3,2,0.3,3c0,1-0.1,1.9-0.3,2.6
				c-0.2,0.6-0.8,0.5-1.3-0.2l-3.5-4.3c-0.3-0.4-0.5-0.8-0.5-1.2c0-0.1,0-0.1,0-0.2s0-0.1,0-0.2C176.5,411.2,176.7,410.9,177,410.9z
				 M179.2,407.4l-3.5,0.3c-0.3,0-0.7-0.2-1-0.6c-0.1-0.1-0.2-0.3-0.3-0.4c-0.3-0.4-0.5-0.8-0.5-1.2V401c0-0.7,0.6-0.9,1.2-0.4
				c1.6,1.4,3.1,3.3,4.3,5.3C179.8,406.6,179.7,407.4,179.2,407.4z M171.5,399.5v4.6c0,0.4-0.2,0.7-0.5,0.7c-0.1,0-0.2,0-0.3,0
				c-0.3,0-0.7-0.2-1-0.5l-3.5-4.3c-0.5-0.6-0.6-1.5-0.2-1.8c1.2-0.7,2.6-0.8,4.3-0.4C170.9,398,171.5,398.8,171.5,399.5z
				 M165,401.7l3.5,4.3c0.3,0.4,0.5,0.8,0.5,1.2c0,0.1,0,0.1,0,0.2c0,0.1,0,0.1,0,0.2c0,0.4-0.2,0.7-0.5,0.7l-3.5,0.3
				c-0.5,0-1.2-0.6-1.3-1.4c-0.2-1-0.3-2-0.3-3c0-1,0.1-1.9,0.3-2.6C163.9,401,164.5,401.1,165,401.7z M166.3,411.8l3.5-0.3
				c0.3,0,0.7,0.2,1,0.6c0.1,0.1,0.2,0.3,0.3,0.4c0.3,0.4,0.5,0.8,0.5,1.2v4.6c0,0.7-0.6,0.9-1.2,0.4c-1.6-1.4-3.1-3.3-4.3-5.3
				C165.7,412.6,165.8,411.9,166.3,411.8z M174,419.7v-4.6c0-0.4,0.2-0.7,0.5-0.7c0.1,0,0.2,0,0.3,0c0.3,0,0.7,0.2,1,0.5l3.5,4.3
				c0.5,0.6,0.6,1.5,0.2,1.8c-1.2,0.7-2.6,0.8-4.3,0.4C174.6,421.2,174,420.4,174,419.7z"/>
			<linearGradient id="SVGID_24_" gradientUnits="userSpaceOnUse" x1="160.9258" y1="409.8947" x2="183.1827" y2="409.8947">
				<stop  offset="3.535350e-02" style="stop-color:#9D9EB3"/>
				<stop  offset="0.5808" style="stop-color:#D4D1D8"/>
				<stop  offset="1" style="stop-color:#EEEBF2"/>
			</linearGradient>
			<path class="st40" d="M172.1,397.1c-6.1-3.5-11.1-0.7-11.1,6.3s5,15.6,11.1,19.2c6.1,3.5,11.1,0.7,11.1-6.3
				C183.2,409.3,178.2,400.7,172.1,397.1z M176.3,411.2l3.5-0.3c0.5,0,1.2,0.6,1.3,1.4c0.2,1,0.3,2,0.3,3c0,1-0.1,1.9-0.3,2.6
				c-0.2,0.6-0.8,0.5-1.3-0.2l-3.5-4.3c-0.3-0.4-0.5-0.8-0.5-1.2c0-0.1,0-0.1,0-0.2c0-0.1,0-0.1,0-0.2
				C175.8,411.5,176,411.2,176.3,411.2z M178.5,407.7l-3.5,0.3c-0.3,0-0.7-0.2-1-0.6c-0.1-0.1-0.2-0.3-0.3-0.4
				c-0.3-0.4-0.5-0.8-0.5-1.2v-4.6c0-0.7,0.6-0.9,1.2-0.4c1.6,1.4,3.1,3.3,4.3,5.3C179.1,406.9,179,407.6,178.5,407.7z M170.8,399.8
				v4.6c0,0.4-0.2,0.7-0.5,0.7c-0.1,0-0.2,0-0.3,0c-0.3,0-0.7-0.2-1-0.5l-3.5-4.3c-0.5-0.6-0.6-1.5-0.2-1.8c1.2-0.7,2.6-0.8,4.3-0.4
				C170.2,398.3,170.8,399.1,170.8,399.8z M164.4,402l3.5,4.3c0.3,0.4,0.5,0.8,0.5,1.2c0,0.1,0,0.1,0,0.2s0,0.1,0,0.2
				c0,0.4-0.2,0.7-0.5,0.7l-3.5,0.3c-0.5,0-1.2-0.6-1.3-1.4c-0.2-1-0.3-2-0.3-3c0-1,0.1-1.9,0.3-2.6
				C163.2,401.3,163.8,401.4,164.4,402z M165.6,412.1l3.5-0.3c0.3,0,0.7,0.2,1,0.6c0.1,0.1,0.2,0.3,0.3,0.4c0.3,0.4,0.5,0.8,0.5,1.2
				v4.6c0,0.7-0.6,0.9-1.2,0.4c-1.6-1.4-3.1-3.3-4.3-5.3C165,412.9,165.1,412.1,165.6,412.1z M173.3,420v-4.6c0-0.4,0.2-0.7,0.5-0.7
				c0.1,0,0.2,0,0.3,0c0.3,0,0.7,0.2,1,0.5l3.5,4.3c0.5,0.6,0.6,1.5,0.2,1.8c-1.2,0.7-2.6,0.8-4.3,0.4
				C173.9,421.5,173.3,420.7,173.3,420z"/>
		</g>
		<g>
			<linearGradient id="SVGID_25_" gradientUnits="userSpaceOnUse" x1="328.8398" y1="500.5152" x2="303.4833" y2="466.5375">
				<stop  offset="5.555560e-02" style="stop-color:#2D2F32"/>
				<stop  offset="0.1544" style="stop-color:#43464A"/>
				<stop  offset="0.2525" style="stop-color:#5D6066"/>
				<stop  offset="0.4798" style="stop-color:#1E1F21"/>
				<stop  offset="1" style="stop-color:#46484D"/>
			</linearGradient>
			<path class="st41" d="M332.2,491.6c0,4.5-1.5,7.6-4.1,9.2c-0.1,0-7.9,4.6-8,4.6c-2.6,1.5-0.9-1.9-4.9-4.1
				c-8-4.6-14.5-15.8-14.5-24.9c0-4.5-4.2-4.6-1.6-6.1c0.1,0,8.4-4.7,8.5-4.7c2.6-1.4,6.2-1.2,10.1,1.1
				C325.7,471.3,332.2,482.4,332.2,491.6z"/>
			<linearGradient id="SVGID_26_" gradientUnits="userSpaceOnUse" x1="294.9113" y1="487.9798" x2="323.8122" y2="487.9798">
				<stop  offset="3.535350e-02" style="stop-color:#1E1F21"/>
				<stop  offset="0.3101" style="stop-color:#2C2E30"/>
				<stop  offset="0.84" style="stop-color:#515359"/>
				<stop  offset="1" style="stop-color:#5D6066"/>
			</linearGradient>
			<path class="st42" d="M323.8,496.3c0,9.2-6.5,12.8-14.5,8.2c-8-4.6-14.5-15.8-14.5-24.9c0-9.2,6.5-12.8,14.5-8.2
				C317.3,476,323.8,487.2,323.8,496.3z"/>
			<radialGradient id="SVGID_27_" cx="312.3371" cy="487.4919" r="15.6118" gradientUnits="userSpaceOnUse">
				<stop  offset="0" style="stop-color:#FFFFFF"/>
				<stop  offset="1" style="stop-color:#000000"/>
			</radialGradient>
			<path class="st43" d="M310.1,471.1c-3.8-2.2-7.3-2.5-9.9-1.2c2.4-0.7,5.4-0.2,8.6,1.7c8,4.6,14.5,15.8,14.5,24.9
				c0,4.8-1.8,8-4.6,9.5c3.5-1,5.8-4.5,5.8-9.9C324.5,486.8,318,475.7,310.1,471.1z"/>
			<linearGradient id="SVGID_28_" gradientUnits="userSpaceOnUse" x1="298.713" y1="488.2177" x2="320.97" y2="488.2177">
				<stop  offset="0" style="stop-color:#BCBEC0"/>
				<stop  offset="1" style="stop-color:#E6E7E8"/>
			</linearGradient>
			<path class="st44" d="M309.8,475.4c-6.1-3.5-11.1-0.7-11.1,6.3c0,7.1,5,15.6,11.1,19.2c6.1,3.5,11.1,0.7,11.1-6.3
				S316,479,309.8,475.4z M314.1,489.5l3.5-0.3c0.5,0,1.2,0.6,1.3,1.4c0.2,1,0.3,2,0.3,3c0,1-0.1,1.9-0.3,2.6
				c-0.2,0.6-0.8,0.5-1.3-0.2l-3.5-4.3c-0.3-0.4-0.5-0.8-0.5-1.2c0-0.1,0-0.1,0-0.2c0-0.1,0-0.1,0-0.2
				C313.6,489.8,313.8,489.5,314.1,489.5z M316.3,486l-3.5,0.3c-0.3,0-0.7-0.2-1-0.6c-0.1-0.1-0.2-0.3-0.3-0.4
				c-0.3-0.4-0.5-0.8-0.5-1.2v-4.6c0-0.7,0.6-0.9,1.2-0.4c1.6,1.4,3.1,3.3,4.3,5.3C316.9,485.2,316.8,486,316.3,486z M308.6,478.1
				v4.6c0,0.4-0.2,0.7-0.5,0.7c-0.1,0-0.2,0-0.3,0c-0.3,0-0.7-0.2-1-0.5l-3.5-4.3c-0.5-0.6-0.6-1.5-0.2-1.8c1.2-0.7,2.6-0.8,4.3-0.4
				C308,476.6,308.6,477.4,308.6,478.1z M302.1,480.3l3.5,4.3c0.3,0.4,0.5,0.8,0.5,1.2c0,0.1,0,0.1,0,0.2c0,0.1,0,0.1,0,0.2
				c0,0.4-0.2,0.7-0.5,0.7l-3.5,0.3c-0.5,0-1.2-0.6-1.3-1.4c-0.2-1-0.3-2-0.3-3c0-1,0.1-1.9,0.3-2.6
				C301,479.6,301.6,479.7,302.1,480.3z M303.4,490.4l3.5-0.3c0.3,0,0.7,0.2,1,0.6c0.1,0.1,0.2,0.3,0.3,0.4c0.3,0.4,0.5,0.8,0.5,1.2
				v4.6c0,0.7-0.6,0.9-1.2,0.4c-1.6-1.4-3.1-3.3-4.3-5.3C302.8,491.2,302.9,490.5,303.4,490.4z M311.1,498.3v-4.6
				c0-0.4,0.2-0.7,0.5-0.7c0.1,0,0.2,0,0.3,0c0.3,0,0.7,0.2,1,0.5l3.5,4.3c0.5,0.6,0.6,1.5,0.2,1.8c-1.2,0.7-2.6,0.8-4.3,0.4
				C311.7,499.8,311.1,499,311.1,498.3z"/>
			<linearGradient id="SVGID_29_" gradientUnits="userSpaceOnUse" x1="298.0196" y1="488.4951" x2="320.2766" y2="488.4951">
				<stop  offset="3.535350e-02" style="stop-color:#9D9EB3"/>
				<stop  offset="0.5808" style="stop-color:#D4D1D8"/>
				<stop  offset="1" style="stop-color:#EEEBF2"/>
			</linearGradient>
			<path class="st45" d="M309.1,475.7c-6.1-3.5-11.1-0.7-11.1,6.3c0,7.1,5,15.6,11.1,19.2c6.1,3.5,11.1,0.7,11.1-6.3
				S315.3,479.3,309.1,475.7z M313.4,489.8l3.5-0.3c0.5,0,1.2,0.6,1.3,1.4c0.2,1,0.3,2,0.3,3c0,1-0.1,1.9-0.3,2.6
				c-0.2,0.6-0.8,0.5-1.3-0.2l-3.5-4.3c-0.3-0.4-0.5-0.8-0.5-1.2c0-0.1,0-0.1,0-0.2c0-0.1,0-0.1,0-0.2
				C312.9,490.1,313.1,489.8,313.4,489.8z M315.6,486.3l-3.5,0.3c-0.3,0-0.7-0.2-1-0.6c-0.1-0.1-0.2-0.3-0.3-0.4
				c-0.3-0.4-0.5-0.8-0.5-1.2v-4.6c0-0.7,0.6-0.9,1.2-0.4c1.6,1.4,3.1,3.3,4.3,5.3C316.2,485.5,316.1,486.2,315.6,486.3z
				 M307.9,478.4v4.6c0,0.4-0.2,0.7-0.5,0.7c-0.1,0-0.2,0-0.3,0c-0.3,0-0.7-0.2-1-0.5l-3.5-4.3c-0.5-0.6-0.6-1.5-0.2-1.8
				c1.2-0.7,2.6-0.8,4.3-0.4C307.3,476.9,307.9,477.7,307.9,478.4z M301.4,480.6l3.5,4.3c0.3,0.4,0.5,0.8,0.5,1.2c0,0.1,0,0.1,0,0.2
				c0,0.1,0,0.1,0,0.2c0,0.4-0.2,0.7-0.5,0.7l-3.5,0.3c-0.5,0-1.2-0.6-1.3-1.4c-0.2-1-0.3-2-0.3-3c0-1,0.1-1.9,0.3-2.6
				C300.3,479.9,300.9,480,301.4,480.6z M302.7,490.7l3.5-0.3c0.3,0,0.7,0.2,1,0.6c0.1,0.1,0.2,0.3,0.3,0.4c0.3,0.4,0.5,0.8,0.5,1.2
				v4.6c0,0.7-0.6,0.9-1.2,0.4c-1.6-1.4-3.1-3.3-4.3-5.3C302.1,491.5,302.2,490.7,302.7,490.7z M310.4,498.6V494
				c0-0.4,0.2-0.7,0.5-0.7c0.1,0,0.2,0,0.3,0c0.3,0,0.7,0.2,1,0.5l3.5,4.3c0.5,0.6,0.6,1.5,0.2,1.8c-1.2,0.7-2.6,0.8-4.3,0.4
				C311,500.1,310.4,499.3,310.4,498.6z"/>
		</g>
		<radialGradient id="SVGID_30_" cx="273.8472" cy="317.7115" r="213.0024" gradientUnits="userSpaceOnUse">
			<stop  offset="0" style="stop-color:#EEEBF2"/>
			<stop  offset="0.5808" style="stop-color:#D4D1D8"/>
			<stop  offset="1" style="stop-color:#C4C4D1"/>
		</radialGradient>
		<path class="st46" d="M403.2,445.2l-55.7-86.1c-0.8-1.2-1.9-2.3-3.2-3l-148.5-85.5c-2.8-1.6-6.3-1.7-9.2-0.1l-41.9,22.9
			c-1.9,1.1-3.4,2.7-4.2,4.8l-12.8,27.2c-0.4,1-0.6,2.1-0.6,3.2l-1,50.2c-0.1,3.4,1.8,6.6,4.7,8.3l26.2,14.9
			c-0.2-1.4-0.4-2.8-0.4-4.2c0-10.4,7.3-14.5,16.4-9.3c9,5.2,16.4,17.8,16.4,28.2c0,1.2-0.1,2.4-0.3,3.5l103.3,58.3
			c-0.1-0.7-0.1-1.4-0.1-2.1c0-10.4,7.3-14.5,16.4-9.3c9,5.2,16.4,17.8,16.4,28.2c0,0.6,0,1.1-0.1,1.7l6.1,3.5
			c2.7,1.5,6,1.6,8.8,0.2l59.7-29.5c3.2-1.6,5.2-4.8,5.2-8.4v-12.4C404.7,448.5,404.1,446.8,403.2,445.2z"/>
		<path class="st47" d="M335.6,475l-8.2-25l-33.7-63.9c-1.3-2.6-3.3-4.8-5.8-6.2l-146.1-84c-0.6,0.7-1,1.5-1.4,2.4l-12.8,27.2
			c-0.4,1-0.6,2.1-0.6,3.2l-1,50.2c-0.1,3.4,1.8,6.6,4.7,8.3l26.2,14.9c-0.2-1.4-0.4-2.8-0.4-4.2c0-10.4,7.3-14.5,16.4-9.3
			c9,5.2,16.4,17.8,16.4,28.2c0,1.2-0.1,2.4-0.3,3.5l103.3,58.3c-0.1-0.7-0.1-1.4-0.1-2.1c0-10.4,7.3-14.5,16.4-9.3
			c9,5.2,16.4,17.8,16.4,28.2c0,0.6,0,1.1-0.1,1.7l6.1,3.5c1.9,1.1,4.1,1.4,6.2,1.1v-19.5C337.2,479.5,336.7,477.1,335.6,475z"/>
		<radialGradient id="SVGID_31_" cx="241.3256" cy="398.4625" r="100.3379" gradientUnits="userSpaceOnUse">
			<stop  offset="0" style="stop-color:#FFFFFF"/>
			<stop  offset="1" style="stop-color:#000000"/>
		</radialGradient>
		<path class="st48" d="M337.5,474.7l-8.2-25l-33.7-63.9c-1.3-2.6-3.3-4.8-5.8-6.2l-146.1-84c-0.5,0.6,0.3,1,0,1.8l144.6,83.2
			c2.5,1.4,4.6,3.6,5.8,6.2l33.7,63.9l8.2,25c1.1,2.2,1.6,4.6,1.6,7V501c0.9,0.1,0.6,0.4,1.5,0.2v-19.5
			C339.1,479.3,338.5,476.9,337.5,474.7z"/>
		<path class="st49" d="M316.1,410.2l14.2-5.2c9.3-3.4,18-8.1,26-14l3.8-2.8c1.7-1.2,4-0.8,5.2,0.9l19.6,29.5c1.1,1.7,0.7,3.9-1,5
			l-10,6.7c-7.7,5.2-16.1,9.4-24.9,12.5l-15.7,5.6c-1.8,0.6-3.7-0.2-4.5-1.9l-14.8-31.5C313.2,413.2,314.1,410.9,316.1,410.2z"/>
		<linearGradient id="SVGID_32_" gradientUnits="userSpaceOnUse" x1="315.8996" y1="418.5452" x2="384.2514" y2="418.5452">
			<stop  offset="0" style="stop-color:#218672"/>
			<stop  offset="1" style="stop-color:#4BA997"/>
		</linearGradient>
		<path class="st50" d="M318.2,411l13.6-4.9c8.9-3.2,17.2-7.7,24.7-13.3l3.6-2.7c1.6-1.2,3.8-0.8,4.9,0.9l18.7,28.1
			c1,1.6,0.6,3.7-1,4.8l-9.5,6.4c-7.4,4.9-15.3,9-23.7,12l-14.9,5.3c-1.7,0.6-3.5-0.2-4.3-1.8l-14.1-30
			C315.4,413.8,316.3,411.7,318.2,411z"/>
		<path class="st49" d="M284.8,402.1l0.8,27.7c0,0.7,0.4,1.3,1,1.7l33.3,19.1v-4.7l-17-37.3l-15.2-8.3
			C286.5,399.5,284.8,400.5,284.8,402.1z"/>
		<linearGradient id="SVGID_33_" gradientUnits="userSpaceOnUse" x1="286.6151" y1="422.3815" x2="311.6505" y2="422.3815">
			<stop  offset="0" style="stop-color:#218672"/>
			<stop  offset="1" style="stop-color:#4BA997"/>
		</linearGradient>
		<polygon class="st51" points="286.6,401.3 287.5,429.4 311.7,443.4 311,429.5 302.5,410 		"/>
		<radialGradient id="SVGID_34_" cx="365.2296" cy="483.3247" r="33.5356" gradientUnits="userSpaceOnUse">
			<stop  offset="0" style="stop-color:#EEEBF2"/>
			<stop  offset="0.5808" style="stop-color:#D4D1D8"/>
			<stop  offset="1" style="stop-color:#B4B5C5"/>
		</radialGradient>
		<path class="st52" d="M323.4,485.4l12.2,6.5c4.4,2.1,9.6,2.3,14.2,0.5l9.3-3.7c14.4-5.8,27.8-14.8,40.4-22.9l5.9-4.7l1.9,0.1
			l-0.3,12.4l-1.9,1.8c-16.5,13.1-35.2,23-55.3,29.4h0c-4.6,1.4-9.5,1-13.8-1.4l-11.7-6.9L323.4,485.4z"/>
		<linearGradient id="SVGID_35_" gradientUnits="userSpaceOnUse" x1="334.2695" y1="486.3156" x2="353.934" y2="486.3156">
			<stop  offset="0" style="stop-color:#BCBEC0"/>
			<stop  offset="1" style="stop-color:#E6E7E8"/>
		</linearGradient>
		<path class="st53" d="M334.6,479.6L334.6,479.6c3.2,1.9,7.1,2.2,10.5,0.6l0,0c2.9-1.4,6.3,0.2,7.2,3.2l1.6,5.5l-8.5,3.4
			c-2.8,1.1-6,1-8.8-0.3l-2.4-1.1L334.6,479.6z"/>
		<linearGradient id="SVGID_36_" gradientUnits="userSpaceOnUse" x1="344.491" y1="490.743" x2="344.0414" y2="476.1767">
			<stop  offset="0" style="stop-color:#9C9C9C"/>
			<stop  offset="4.718125e-03" style="stop-color:#9D9D9D"/>
			<stop  offset="0.3149" style="stop-color:#C7C7C7"/>
			<stop  offset="0.595" style="stop-color:#E6E6E6"/>
			<stop  offset="0.8328" style="stop-color:#F8F8F8"/>
			<stop  offset="1" style="stop-color:#FFFFFF"/>
		</linearGradient>
		<path class="st54" d="M334.6,479.6L334.6,479.6c3.2,1.9,7.1,2.2,10.5,0.6l0,0c2.9-1.4,6.3,0.2,7.2,3.2l1.6,5.5l-9.8-0.5
			C334.5,486.4,334.6,479.6,334.6,479.6z"/>
		<linearGradient id="SVGID_37_" gradientUnits="userSpaceOnUse" x1="398.2108" y1="456.5424" x2="405.6671" y2="456.5424">
			<stop  offset="0" style="stop-color:#BCBEC0"/>
			<stop  offset="1" style="stop-color:#E6E7E8"/>
		</linearGradient>
		<path class="st55" d="M399,457.4l-0.8,8.1c0,0,6.9-4.3,7.3-5.9c0.4-1.7-0.3-11.8-0.3-11.8l-2,2.4l0,0
			C400.8,451.7,399.2,454.4,399,457.4z"/>
		<linearGradient id="SVGID_38_" gradientUnits="userSpaceOnUse" x1="398.2108" y1="456.5424" x2="405.2615" y2="456.5424">
			<stop  offset="0" style="stop-color:#9C9C9C"/>
			<stop  offset="4.718125e-03" style="stop-color:#9D9D9D"/>
			<stop  offset="0.3149" style="stop-color:#C7C7C7"/>
			<stop  offset="0.595" style="stop-color:#E6E6E6"/>
			<stop  offset="0.8328" style="stop-color:#F8F8F8"/>
			<stop  offset="1" style="stop-color:#FFFFFF"/>
		</linearGradient>
		<path class="st56" d="M399,457.4l-0.8,8.1c0,0,4.4-7.5,4.8-9.2c0.4-1.7,2.2-8.6,2.2-8.6l-2,2.4l0,0
			C400.8,451.7,399.2,454.4,399,457.4z"/>
		<path class="st49" d="M384.9,418.7l-2-3c-0.2,1.1-0.7,2.1-1.7,2.8l-11.2,7.5c-8.7,5.8-18.1,10.6-28,14.1l-13.8,5l0.7,1.5
			c0.8,1.7,2.7,2.5,4.5,1.9l15.7-5.6c8.8-3.1,17.1-7.4,24.9-12.5l10-6.7C385.6,422.6,386,420.4,384.9,418.7z"/>
		<polygon class="st57" points="297,380.6 340.4,356 192,271.2 148.6,295.5 		"/>
		<linearGradient id="SVGID_39_" gradientUnits="userSpaceOnUse" x1="314.8796" y1="446.0828" x2="297.5577" y2="456.8545">
			<stop  offset="0" style="stop-color:#696969"/>
			<stop  offset="0.2423" style="stop-color:#9C9C9C"/>
			<stop  offset="0.4796" style="stop-color:#C7C7C7"/>
			<stop  offset="0.6924" style="stop-color:#E6E6E6"/>
			<stop  offset="0.873" style="stop-color:#F8F8F8"/>
			<stop  offset="1" style="stop-color:#FFFFFF"/>
		</linearGradient>
		<path class="st58" d="M316,447.7c2.3,1.4-11.9,7.7-17.4,8.8c-5.6,1.1-0.9,2.5-1,1.6C296.8,453.8,308.2,443,316,447.7z"/>
		<radialGradient id="SVGID_40_" cx="304.5119" cy="441.4016" r="9.1575" gradientUnits="userSpaceOnUse">
			<stop  offset="0" style="stop-color:#EEEBF2"/>
			<stop  offset="0.5808" style="stop-color:#D4D1D8"/>
			<stop  offset="0.9392" style="stop-color:#A5A6B9"/>
			<stop  offset="1" style="stop-color:#9D9EB3"/>
		</radialGradient>
		<path class="st59" d="M299.4,440l0.9,11c0.1,1.7,1.9,2.7,3.4,2l11.9-3.6c1-0.4,1.6-1.5,1.5-2.6l-3.9-10.3c-0.2-1.5-1.7-2.5-3.2-2
			l-8.9,2.9C300,437.9,299.3,438.9,299.4,440z"/>
		<radialGradient id="SVGID_41_" cx="302.5658" cy="433.8127" r="10.5928" gradientUnits="userSpaceOnUse">
			<stop  offset="0" style="stop-color:#FFFFFF"/>
			<stop  offset="1" style="stop-color:#000000"/>
		</radialGradient>
		<path class="st60" d="M302.6,452.4l-0.9-11c-0.1-1.1,0.6-2.2,1.7-2.5l8.9-2.9c0.2-0.1,0.4-0.1,0.6-0.1c-0.5-1-1.8-1.6-2.9-1.2
			l-8.9,2.9c-1.1,0.4-1.8,1.4-1.7,2.5l0.9,11c0.1,1.4,1.3,2.3,2.6,2.2C302.7,453,302.6,452.7,302.6,452.4z"/>
		<linearGradient id="SVGID_42_" gradientUnits="userSpaceOnUse" x1="232.8356" y1="448.585" x2="241.2999" y2="434.6543">
			<stop  offset="0" style="stop-color:#9C9C9C"/>
			<stop  offset="4.718125e-03" style="stop-color:#9D9D9D"/>
			<stop  offset="0.3149" style="stop-color:#C7C7C7"/>
			<stop  offset="0.595" style="stop-color:#E6E6E6"/>
			<stop  offset="0.8328" style="stop-color:#F8F8F8"/>
			<stop  offset="1" style="stop-color:#FFFFFF"/>
		</linearGradient>
		<path class="st61" d="M297.8,465.5l-113.4-65c3.1,5.2,5,11,5,16.3c0,1.2-0.1,2.4-0.3,3.5l103.3,58.3c-0.1-0.7-0.1-1.4-0.1-2.1
			C292.2,470.8,294.4,467,297.8,465.5z"/>
		<linearGradient id="SVGID_43_" gradientUnits="userSpaceOnUse" x1="136.8642" y1="392.4732" x2="144.421" y2="380.0359">
			<stop  offset="0" style="stop-color:#9C9C9C"/>
			<stop  offset="4.718125e-03" style="stop-color:#9D9D9D"/>
			<stop  offset="0.3149" style="stop-color:#C7C7C7"/>
			<stop  offset="0.595" style="stop-color:#E6E6E6"/>
			<stop  offset="0.8328" style="stop-color:#F8F8F8"/>
			<stop  offset="1" style="stop-color:#FFFFFF"/>
		</linearGradient>
		<path class="st62" d="M156.7,397.9c0-5.2,1.9-8.9,4.9-10.6L126.3,367l-0.2,11.9c-0.1,3.4,1.8,6.6,4.7,8.3l26.2,14.9
			C156.8,400.7,156.7,399.3,156.7,397.9z"/>
		<g>
			<linearGradient id="SVGID_44_" gradientUnits="userSpaceOnUse" x1="339.6611" y1="485.8181" x2="350.7523" y2="485.8181">
				<stop  offset="0" style="stop-color:#BCBEC0"/>
				<stop  offset="1" style="stop-color:#E6E7E8"/>
			</linearGradient>
			<path class="st63" d="M350.8,483.6l-2.9,6.2c0,0-9-5.5-8.1-7.5C340.6,480.5,350.8,483.6,350.8,483.6z"/>
			
				<linearGradient id="SVGID_45_" gradientUnits="userSpaceOnUse" x1="-70.7441" y1="486.6197" x2="-65.7848" y2="486.6197" gradientTransform="matrix(-1 0 0 1 281.0627 0)">
				<stop  offset="0" style="stop-color:#BCBEC0"/>
				<stop  offset="0.6862" style="stop-color:#E9EAEA"/>
				<stop  offset="1" style="stop-color:#FFFFFF"/>
			</linearGradient>
			<path class="st64" d="M346.8,488.1c0,1.6,1.1,2.2,2.5,1.4c1.4-0.8,2.5-2.7,2.5-4.3c0-1.6-1.1-2.2-2.5-1.4
				C348,484.6,346.8,486.5,346.8,488.1z"/>
		</g>
		<g>
			<linearGradient id="SVGID_46_" gradientUnits="userSpaceOnUse" x1="335.8266" y1="486.6132" x2="344.6466" y2="486.6132">
				<stop  offset="0" style="stop-color:#BCBEC0"/>
				<stop  offset="1" style="stop-color:#E6E7E8"/>
			</linearGradient>
			<path class="st65" d="M344.6,484.9l-2.3,5c0,0-7.1-4.4-6.4-5.9C336.6,482.4,344.6,484.9,344.6,484.9z"/>
			
				<linearGradient id="SVGID_47_" gradientUnits="userSpaceOnUse" x1="-64.4226" y1="487.2506" x2="-60.4788" y2="487.2506" gradientTransform="matrix(-1 0 0 1 281.0627 0)">
				<stop  offset="0" style="stop-color:#BCBEC0"/>
				<stop  offset="0.6862" style="stop-color:#E9EAEA"/>
				<stop  offset="1" style="stop-color:#FFFFFF"/>
			</linearGradient>
			<path class="st66" d="M341.5,488.4c0,1.2,0.9,1.8,2,1.1c1.1-0.6,2-2.2,2-3.4c0-1.2-0.9-1.8-2-1.1
				C342.4,485.6,341.5,487.1,341.5,488.4z"/>
		</g>
		<g>
			<linearGradient id="SVGID_48_" gradientUnits="userSpaceOnUse" x1="399.0053" y1="458.2771" x2="403.913" y2="458.2771">
				<stop  offset="0" style="stop-color:#BCBEC0"/>
				<stop  offset="1" style="stop-color:#E6E7E8"/>
			</linearGradient>
			<path class="st67" d="M403.9,456.3l-2,4.3c0,0-3.4-2.6-2.8-3.9C399.7,455.3,403.9,456.3,403.9,456.3z"/>
			
				<linearGradient id="SVGID_49_" gradientUnits="userSpaceOnUse" x1="-123.5705" y1="458.3657" x2="-120.1835" y2="458.3657" gradientTransform="matrix(-1 0 0 1 281.0627 0)">
				<stop  offset="0" style="stop-color:#BCBEC0"/>
				<stop  offset="0.6862" style="stop-color:#E9EAEA"/>
				<stop  offset="1" style="stop-color:#FFFFFF"/>
			</linearGradient>
			<path class="st68" d="M401.2,459.3c0,1.1,0.8,1.5,1.7,1c0.9-0.5,1.7-1.8,1.7-2.9s-0.8-1.5-1.7-1C402,457,401.2,458.3,401.2,459.3
				z"/>
		</g>
		<g>
			<linearGradient id="SVGID_50_" gradientUnits="userSpaceOnUse" x1="401.147" y1="454.2354" x2="404.7292" y2="454.2354">
				<stop  offset="0" style="stop-color:#BCBEC0"/>
				<stop  offset="1" style="stop-color:#E6E7E8"/>
			</linearGradient>
			<path class="st69" d="M404.7,452.8l-1.5,3.1c0,0-2.5-1.9-2.1-2.9S404.7,452.8,404.7,452.8z"/>
			
				<linearGradient id="SVGID_51_" gradientUnits="userSpaceOnUse" x1="-124.1924" y1="454.3001" x2="-121.72" y2="454.3001" gradientTransform="matrix(-1 0 0 1 281.0627 0)">
				<stop  offset="0" style="stop-color:#BCBEC0"/>
				<stop  offset="0.6862" style="stop-color:#E9EAEA"/>
				<stop  offset="1" style="stop-color:#FFFFFF"/>
			</linearGradient>
			<path class="st70" d="M402.8,455c0,0.8,0.6,1.1,1.2,0.7c0.7-0.4,1.2-1.3,1.2-2.1c0-0.8-0.6-1.1-1.2-0.7
				C403.3,453.3,402.8,454.2,402.8,455z"/>
		</g>
		<path class="st49" d="M355.1,478.2l1.2,3.2c1,2.6,3.9,3.7,6.4,2.5c4.4-2.2,11.2-5.7,17-9.1c6.4-3.8,11.6-7.2,14.3-9
			c1.2-0.8,2-2.1,2-3.6l0.3-5.9c0.1-1.1-1.1-1.8-2-1.2c-3.7,2.5-11.6,7.6-18.2,11.4c-7.5,4.2-17,8.5-20.2,9.9
			C355.1,476.8,354.8,477.5,355.1,478.2z"/>
		<radialGradient id="SVGID_52_" cx="387.9464" cy="480.733" r="30.9854" gradientUnits="userSpaceOnUse">
			<stop  offset="0" style="stop-color:#FFFFFF"/>
			<stop  offset="1" style="stop-color:#000000"/>
		</radialGradient>
		<path class="st71" d="M395.1,455c0.1,0.2,0.2,0.4,0.1,0.7l-0.3,5.9c-0.1,1.5-0.8,2.8-2,3.6c-2.7,1.8-7.9,5.2-14.3,9
			c-5.7,3.4-12.5,6.9-17,9.1c-1.3,0.7-2.8,0.6-4.1,0c1.4,1.2,3.4,1.5,5.1,0.7c4.4-2.2,11.2-5.7,17-9.1c6.4-3.8,11.6-7.2,14.3-9
			c1.2-0.8,2-2.1,2-3.6l0.3-5.9C396.3,455.7,395.7,455.1,395.1,455z"/>
		<linearGradient id="SVGID_53_" gradientUnits="userSpaceOnUse" x1="437.8564" y1="459.1027" x2="327.5703" y2="445.5675">
			<stop  offset="0" style="stop-color:#D1D3D4"/>
			<stop  offset="0.1948" style="stop-color:#979899"/>
			<stop  offset="0.3972" style="stop-color:#616263"/>
			<stop  offset="0.5861" style="stop-color:#373838"/>
			<stop  offset="0.7554" style="stop-color:#191919"/>
			<stop  offset="0.8991" style="stop-color:#070707"/>
			<stop  offset="1" style="stop-color:#000000"/>
		</linearGradient>
		<path class="st72" d="M388.4,425.7c0,0,11.3,16.6,10.5,20.2c-0.8,3.6-18.5,14.7-27.9,19c-9.4,4.3-26.5,12.1-30.5,9.3
			s-7.5-22.8-7.5-22.8s16.3-4.3,32.6-11.7C381.9,432.2,388.4,425.7,388.4,425.7z"/>
		<path class="st49" d="M383.5,429.8l-0.1-0.2c-0.4-0.7-1.4-0.7-2-0.2c-0.1,0.1-0.2,0.2-0.3,0.2l-7.1,4.8c-5.5,3.7-11.5,6.7-17.8,9
			l-7.8,2.8c-0.5,0.2-0.8,0.8-0.6,1.3l0,0c0.5,1.1,1.7,1.6,2.9,1.2l10-3.6c5.6-2,10.9-4.7,15.8-8l6.4-4.3
			C383.9,432.3,384.2,430.8,383.5,429.8z"/>
		<linearGradient id="SVGID_54_" gradientUnits="userSpaceOnUse" x1="220.7101" y1="413.0557" x2="229.344" y2="398.7911">
			<stop  offset="0" style="stop-color:#9C9C9C"/>
			<stop  offset="1.334703e-02" style="stop-color:#999999"/>
			<stop  offset="0.2616" style="stop-color:#636363"/>
			<stop  offset="0.4929" style="stop-color:#383838"/>
			<stop  offset="0.7003" style="stop-color:#191919"/>
			<stop  offset="0.8763" style="stop-color:#070707"/>
			<stop  offset="1" style="stop-color:#000000"/>
		</linearGradient>
		<polygon class="st73" points="127.2,344.7 317.4,452.1 323.2,466.6 127,356.4 		"/>
		<polygon class="st74" points="291.1,466.7 190.2,408.8 190.9,407.7 291.7,465.6 		"/>
		<radialGradient id="SVGID_55_" cx="218.6322" cy="382.812" r="79.0904" gradientUnits="userSpaceOnUse">
			<stop  offset="0" style="stop-color:#FFFFFF"/>
			<stop  offset="1" style="stop-color:#000000"/>
		</radialGradient>
		<polygon class="st75" points="300.2,399.7 137.7,306.3 137.1,307.3 243.3,368.5 243.3,437.4 244.5,437.4 244.5,369.2 281,390.2 
			281,459.4 282.3,459.4 282.3,390.9 299.6,400.8 		"/>
		<g>
			<linearGradient id="SVGID_56_" gradientUnits="userSpaceOnUse" x1="289.1513" y1="441.3787" x2="295.7075" y2="441.3787">
				<stop  offset="0" style="stop-color:#9C9C9C"/>
				<stop  offset="4.718125e-03" style="stop-color:#9D9D9D"/>
				<stop  offset="0.3149" style="stop-color:#C7C7C7"/>
				<stop  offset="0.595" style="stop-color:#E6E6E6"/>
				<stop  offset="0.8328" style="stop-color:#F8F8F8"/>
				<stop  offset="1" style="stop-color:#FFFFFF"/>
			</linearGradient>
			<path class="st76" d="M293.4,443.3c0,2.1-1.5,2.9-3.3,1.9c-1.8-1-3.3-3.6-3.3-5.7c0-2.1,1.5-2.9,3.3-1.9
				C292,438.7,293.4,441.2,293.4,443.3z"/>
			<radialGradient id="SVGID_57_" cx="289.4685" cy="439.0593" r="6.3592" gradientUnits="userSpaceOnUse">
				<stop  offset="0" style="stop-color:#EEEBF2"/>
				<stop  offset="0.5808" style="stop-color:#D4D1D8"/>
				<stop  offset="0.9392" style="stop-color:#A5A6B9"/>
				<stop  offset="1" style="stop-color:#9D9EB3"/>
			</radialGradient>
			<path class="st77" d="M293.4,443.1c0.7,1.4-0.6,1.7-2.9,0.5c-2.3-1.2-4.8-3.3-5.5-4.7c-0.7-1.4,0.6-1.7,2.9-0.5
				C290.2,439.6,292.7,441.7,293.4,443.1z"/>
		</g>
		<g>
			<linearGradient id="SVGID_58_" gradientUnits="userSpaceOnUse" x1="272.9832" y1="432.6621" x2="279.5396" y2="432.6621">
				<stop  offset="0" style="stop-color:#9C9C9C"/>
				<stop  offset="4.718125e-03" style="stop-color:#9D9D9D"/>
				<stop  offset="0.3149" style="stop-color:#C7C7C7"/>
				<stop  offset="0.595" style="stop-color:#E6E6E6"/>
				<stop  offset="0.8328" style="stop-color:#F8F8F8"/>
				<stop  offset="1" style="stop-color:#FFFFFF"/>
			</linearGradient>
			<path class="st78" d="M277.3,434.6c0,2.1-1.5,2.9-3.3,1.9c-1.8-1-3.3-3.6-3.3-5.7c0-2.1,1.5-2.9,3.3-1.9
				C275.8,429.9,277.3,432.5,277.3,434.6z"/>
			<radialGradient id="SVGID_59_" cx="273.3004" cy="430.3427" r="6.3591" gradientUnits="userSpaceOnUse">
				<stop  offset="0" style="stop-color:#EEEBF2"/>
				<stop  offset="0.5808" style="stop-color:#D4D1D8"/>
				<stop  offset="0.9392" style="stop-color:#A5A6B9"/>
				<stop  offset="1" style="stop-color:#9D9EB3"/>
			</radialGradient>
			<path class="st79" d="M277.2,434.4c0.7,1.4-0.6,1.7-2.9,0.5c-2.3-1.2-4.8-3.3-5.5-4.7c-0.7-1.4,0.6-1.7,2.9-0.5
				C274.1,430.8,276.5,433,277.2,434.4z"/>
		</g>
		<path class="st74" d="M276,425.3L276,425.3c-0.5,0-1-0.1-1.4-0.4l-23.3-12.5c-2.1-1.1-3.4-3.3-3.4-5.7V383c0-1.6,1.3-3,3-3
			c0.5,0,1,0.1,1.5,0.4l23.4,13.7c2,1.2,3.2,3.3,3.2,5.6v22.5c0,0.8-0.3,1.6-0.9,2.1C277.5,425,276.7,425.3,276,425.3z M250.8,381.3
			c-0.8,0-1.7,0.7-1.7,1.7v23.6c0,1.9,1.1,3.7,2.8,4.6l23.3,12.5c0.7,0.4,1.5,0.2,2-0.3c0.3-0.3,0.5-0.8,0.5-1.2v-22.5
			c0-1.9-1-3.6-2.6-4.5l-23.4-13.7C251.4,381.4,251.1,381.3,250.8,381.3z"/>
		<radialGradient id="SVGID_60_" cx="263.6676" cy="397.9043" r="25.1988" gradientUnits="userSpaceOnUse">
			<stop  offset="0" style="stop-color:#FFFFFF"/>
			<stop  offset="1" style="stop-color:#000000"/>
		</radialGradient>
		<path class="st80" d="M276.3,426.2L276.3,426.2c-0.5,0-1-0.1-1.4-0.4l-23.3-12.5c-2.1-1.1-3.4-3.3-3.4-5.7V384c0-1.6,1.3-3,3-3
			c0.5,0,1,0.1,1.5,0.4l23.4,13.7c2,1.2,3.2,3.3,3.2,5.6v22.5c0,0.8-0.3,1.6-0.9,2.1C277.8,425.9,277,426.2,276.3,426.2z
			 M251.1,382.3c-0.8,0-1.7,0.7-1.7,1.7v23.6c0,1.9,1.1,3.7,2.8,4.6l23.3,12.5c0.7,0.4,1.5,0.2,2-0.3c0.3-0.3,0.5-0.8,0.5-1.2v-22.5
			c0-1.9-1-3.6-2.6-4.5l-23.4-13.7C251.7,382.4,251.4,382.3,251.1,382.3z"/>
	</g>
	<g>
		<polygon class="st0" points="46.8,436.3 101.2,467.2 169.2,429.2 119.2,399.2 		"/>
		<g>
			
				<linearGradient id="SVGID_61_" gradientUnits="userSpaceOnUse" x1="6256.0693" y1="424.2857" x2="6379.9185" y2="396.5227" gradientTransform="matrix(-1 0 0 1 6419.3809 0)">
				<stop  offset="3.535350e-02" style="stop-color:#FFA98C"/>
				<stop  offset="0.3169" style="stop-color:#FFB892"/>
				<stop  offset="0.8601" style="stop-color:#FEE1A3"/>
				<stop  offset="1" style="stop-color:#FEECA8"/>
			</linearGradient>
			<polygon class="st81" points="117.3,404.2 117.3,434.4 88.2,417.5 88.2,387.1 			"/>
			
				<linearGradient id="SVGID_62_" gradientUnits="userSpaceOnUse" x1="6279.9697" y1="413.6527" x2="6336.1416" y2="396.8329" gradientTransform="matrix(-1 0 0 1 6419.3809 0)">
				<stop  offset="3.535350e-02" style="stop-color:#DDDDDD"/>
				<stop  offset="0.5311" style="stop-color:#ECECEC"/>
				<stop  offset="1" style="stop-color:#FFFFFF"/>
			</linearGradient>
			<polygon class="st82" points="117.3,404.2 117.3,434.4 144.9,418.4 144.9,388 			"/>
			
				<linearGradient id="SVGID_63_" gradientUnits="userSpaceOnUse" x1="6333.2002" y1="329.6653" x2="6300.5234" y2="391.9397" gradientTransform="matrix(-1 0 0 1 6419.3809 0)">
				<stop  offset="0" style="stop-color:#FFFFFF"/>
				<stop  offset="1" style="stop-color:#FFFFFF"/>
			</linearGradient>
			<polygon class="st83" points="144.9,388 117.3,404.2 88.2,387.1 115.9,370.9 			"/>
			
				<linearGradient id="SVGID_64_" gradientUnits="userSpaceOnUse" x1="6316.3667" y1="399.494" x2="6334.3291" y2="394.1154" gradientTransform="matrix(-1 0 0 1 6419.3809 0)">
				<stop  offset="3.535350e-02" style="stop-color:#C97052"/>
				<stop  offset="0.3358" style="stop-color:#D47E61"/>
				<stop  offset="0.9155" style="stop-color:#F2A48A"/>
				<stop  offset="1" style="stop-color:#F7AA90"/>
			</linearGradient>
			<polygon class="st84" points="104.9,397 104.9,405.1 98.4,401.4 98.4,393 			"/>
			
				<linearGradient id="SVGID_65_" gradientUnits="userSpaceOnUse" x1="6311.9775" y1="371.5972" x2="6303.2954" y2="388.1437" gradientTransform="matrix(-1 0 0 1 6419.3809 0)">
				<stop  offset="0" style="stop-color:#E45D4A"/>
				<stop  offset="0.4881" style="stop-color:#E5614D"/>
				<stop  offset="0.9361" style="stop-color:#E76C58"/>
				<stop  offset="1" style="stop-color:#E86E5A"/>
			</linearGradient>
			<polygon class="st85" points="132.5,380.8 104.9,397 98.4,393 126.1,376.9 			"/>
			<g>
				
					<linearGradient id="SVGID_66_" gradientUnits="userSpaceOnUse" x1="6696.6714" y1="2010.4926" x2="6708.0098" y2="2016.6056" gradientTransform="matrix(-0.866 -0.5 0 1.1547 5911.5952 1449.3223)">
					<stop  offset="3.535350e-02" style="stop-color:#C97052"/>
					<stop  offset="0.3358" style="stop-color:#D47E61"/>
					<stop  offset="0.9155" style="stop-color:#F2A48A"/>
					<stop  offset="1" style="stop-color:#F7AA90"/>
				</linearGradient>
				<polygon class="st86" points="111.8,415.1 114.1,422.3 112.6,421.4 112.6,429.9 110.9,429 110.9,420.5 109.4,419.6 				"/>
				
					<linearGradient id="SVGID_67_" gradientUnits="userSpaceOnUse" x1="6703.145" y1="2010.4927" x2="6714.4839" y2="2016.6057" gradientTransform="matrix(-0.866 -0.5 0 1.1547 5911.5952 1449.3223)">
					<stop  offset="3.535350e-02" style="stop-color:#C97052"/>
					<stop  offset="0.3358" style="stop-color:#D47E61"/>
					<stop  offset="0.9155" style="stop-color:#F2A48A"/>
					<stop  offset="1" style="stop-color:#F7AA90"/>
				</linearGradient>
				<polygon class="st87" points="103.8,416.4 106.1,411.9 108.5,419 107,418.2 107,426.7 105.3,425.7 105.3,417.2 				"/>
			</g>
		</g>
		<g>
			
				<linearGradient id="SVGID_68_" gradientUnits="userSpaceOnUse" x1="6303.3784" y1="440.7847" x2="6412.4629" y2="416.3315" gradientTransform="matrix(-1 0 0 1 6419.3809 0)">
				<stop  offset="3.535350e-02" style="stop-color:#DDDDDD"/>
				<stop  offset="0.5311" style="stop-color:#ECECEC"/>
				<stop  offset="1" style="stop-color:#FFFFFF"/>
			</linearGradient>
			<polygon class="st88" points="75.5,423.1 75.5,449.7 49.8,434.8 49.8,408 			"/>
			
				<linearGradient id="SVGID_69_" gradientUnits="userSpaceOnUse" x1="6324.4292" y1="431.4193" x2="6373.9048" y2="416.6046" gradientTransform="matrix(-1 0 0 1 6419.3809 0)">
				<stop  offset="3.535350e-02" style="stop-color:#DDDDDD"/>
				<stop  offset="0.5311" style="stop-color:#ECECEC"/>
				<stop  offset="1" style="stop-color:#FFFFFF"/>
			</linearGradient>
			<polygon class="st89" points="75.4,423.1 75.4,449.7 99.8,435.6 99.8,408.8 			"/>
			
				<linearGradient id="SVGID_70_" gradientUnits="userSpaceOnUse" x1="6371.314" y1="357.4444" x2="6342.5332" y2="412.2948" gradientTransform="matrix(-1 0 0 1 6419.3809 0)">
				<stop  offset="0" style="stop-color:#FFFFFF"/>
				<stop  offset="1" style="stop-color:#FFFFFF"/>
			</linearGradient>
			<polygon class="st90" points="99.8,408.8 75.4,423.1 49.8,408 74.2,393.8 			"/>
			
				<linearGradient id="SVGID_71_" gradientUnits="userSpaceOnUse" x1="6356.4873" y1="418.9483" x2="6372.3081" y2="414.211" gradientTransform="matrix(-1 0 0 1 6419.3809 0)">
				<stop  offset="0" style="stop-color:#E45D4A"/>
				<stop  offset="0.4881" style="stop-color:#E5614D"/>
				<stop  offset="0.9361" style="stop-color:#E76C58"/>
				<stop  offset="1" style="stop-color:#E86E5A"/>
			</linearGradient>
			<polygon class="st91" points="64.6,416.8 64.6,423.9 58.8,420.6 58.8,413.3 			"/>
			
				<linearGradient id="SVGID_72_" gradientUnits="userSpaceOnUse" x1="6352.6216" y1="394.3775" x2="6344.9746" y2="408.9512" gradientTransform="matrix(-1 0 0 1 6419.3809 0)">
				<stop  offset="0" style="stop-color:#E45D4A"/>
				<stop  offset="0.4881" style="stop-color:#E5614D"/>
				<stop  offset="0.9361" style="stop-color:#E76C58"/>
				<stop  offset="1" style="stop-color:#E86E5A"/>
			</linearGradient>
			<polygon class="st92" points="88.9,402.5 64.6,416.8 58.8,413.3 83.2,399.1 			"/>
		</g>
		<g>
			<linearGradient id="SVGID_73_" gradientUnits="userSpaceOnUse" x1="114.9521" y1="440.2631" x2="182.0827" y2="420.1619">
				<stop  offset="3.535350e-02" style="stop-color:#DDDDDD"/>
				<stop  offset="0.5311" style="stop-color:#ECECEC"/>
				<stop  offset="1" style="stop-color:#FFFFFF"/>
			</linearGradient>
			<polygon class="st93" points="107.2,433 107.2,459.6 132.9,444.7 132.9,417.9 			"/>
			<linearGradient id="SVGID_74_" gradientUnits="userSpaceOnUse" x1="53.6571" y1="448.4201" x2="138.3191" y2="429.4416">
				<stop  offset="3.535350e-02" style="stop-color:#DDDDDD"/>
				<stop  offset="0.5311" style="stop-color:#ECECEC"/>
				<stop  offset="1" style="stop-color:#FFFFFF"/>
			</linearGradient>
			<polygon class="st94" points="107.3,433 107.3,459.6 82.9,445.5 82.9,418.7 			"/>
			<linearGradient id="SVGID_75_" gradientUnits="userSpaceOnUse" x1="134.6317" y1="367.3561" x2="105.8509" y2="422.2066">
				<stop  offset="0" style="stop-color:#FFFFFF"/>
				<stop  offset="1" style="stop-color:#FFFFFF"/>
			</linearGradient>
			<polygon class="st95" points="82.9,418.7 107.3,433 132.9,417.9 108.5,403.7 			"/>
			<linearGradient id="SVGID_76_" gradientUnits="userSpaceOnUse" x1="119.8052" y1="428.8603" x2="135.6263" y2="424.1229">
				<stop  offset="0" style="stop-color:#E45D4A"/>
				<stop  offset="0.4881" style="stop-color:#E5614D"/>
				<stop  offset="0.9361" style="stop-color:#E76C58"/>
				<stop  offset="1" style="stop-color:#E86E5A"/>
			</linearGradient>
			<polygon class="st96" points="118.1,426.7 118.1,433.8 123.9,430.5 123.9,423.2 			"/>
			<linearGradient id="SVGID_77_" gradientUnits="userSpaceOnUse" x1="115.9394" y1="404.289" x2="108.2922" y2="418.8631">
				<stop  offset="0" style="stop-color:#E45D4A"/>
				<stop  offset="0.4881" style="stop-color:#E5614D"/>
				<stop  offset="0.9361" style="stop-color:#E76C58"/>
				<stop  offset="1" style="stop-color:#E86E5A"/>
			</linearGradient>
			<polygon class="st97" points="93.8,412.4 118.1,426.7 123.9,423.2 99.5,409 			"/>
		</g>
		<g>
			<linearGradient id="SVGID_78_" gradientUnits="userSpaceOnUse" x1="101.655" y1="403.4461" x2="158.2831" y2="386.4897">
				<stop  offset="3.535350e-02" style="stop-color:#DDDDDD"/>
				<stop  offset="0.5311" style="stop-color:#ECECEC"/>
				<stop  offset="1" style="stop-color:#FFFFFF"/>
			</linearGradient>
			<polygon class="st98" points="95.1,397.3 95.1,419.7 116.8,407.2 116.8,384.6 			"/>
			<linearGradient id="SVGID_79_" gradientUnits="userSpaceOnUse" x1="49.9493" y1="410.327" x2="121.3664" y2="394.3176">
				<stop  offset="3.535350e-02" style="stop-color:#DDDDDD"/>
				<stop  offset="0.5311" style="stop-color:#ECECEC"/>
				<stop  offset="1" style="stop-color:#FFFFFF"/>
			</linearGradient>
			<polygon class="st99" points="95.2,397.3 95.2,419.7 74.6,407.9 74.6,385.3 			"/>
			<linearGradient id="SVGID_80_" gradientUnits="userSpaceOnUse" x1="118.2559" y1="341.945" x2="93.9776" y2="388.2144">
				<stop  offset="0" style="stop-color:#FFFFFF"/>
				<stop  offset="1" style="stop-color:#FFFFFF"/>
			</linearGradient>
			<polygon class="st100" points="74.6,385.3 95.2,397.3 116.8,384.6 96.2,372.6 			"/>
			<linearGradient id="SVGID_81_" gradientUnits="userSpaceOnUse" x1="105.7489" y1="393.8272" x2="119.0949" y2="389.8309">
				<stop  offset="0" style="stop-color:#E45D4A"/>
				<stop  offset="0.4881" style="stop-color:#E5614D"/>
				<stop  offset="0.9361" style="stop-color:#E76C58"/>
				<stop  offset="1" style="stop-color:#E86E5A"/>
			</linearGradient>
			<polygon class="st101" points="104.3,392 104.3,398 109.2,395.2 109.2,389 			"/>
			<linearGradient id="SVGID_82_" gradientUnits="userSpaceOnUse" x1="102.4877" y1="373.1002" x2="96.037" y2="385.394">
				<stop  offset="0" style="stop-color:#E45D4A"/>
				<stop  offset="0.4881" style="stop-color:#E5614D"/>
				<stop  offset="0.9361" style="stop-color:#E76C58"/>
				<stop  offset="1" style="stop-color:#E86E5A"/>
			</linearGradient>
			<polygon class="st102" points="83.8,380 104.3,392 109.2,389 88.6,377.1 			"/>
		</g>
	</g>
	<g>
		<linearGradient id="SVGID_83_" gradientUnits="userSpaceOnUse" x1="509.7936" y1="221.6165" x2="470.3804" y2="132.0698">
			<stop  offset="3.535350e-02" style="stop-color:#E45D4A"/>
			<stop  offset="0.583" style="stop-color:#E86C58"/>
			<stop  offset="0.6313" style="stop-color:#E86E5A"/>
			<stop  offset="0.8724" style="stop-color:#E45D4A"/>
		</linearGradient>
		<path class="st103" d="M491.5,134.7c-8.1-4.7-15.3-4.8-20.3-1.3l-5.8,2.7l0.7,3.7c-1.2,2.9-2,6.4-2,10.5
			c0,11.9,6.3,30.6,12.9,46.8L484,233l7.6-3.8c0,0,27.4-22.6,27.4-47.3C518.9,164.6,506.6,143.4,491.5,134.7z"/>
		<linearGradient id="SVGID_84_" gradientUnits="userSpaceOnUse" x1="440.4738" y1="212.1962" x2="517.0928" y2="149.7658">
			<stop  offset="3.535350e-02" style="stop-color:#E45D4A"/>
			<stop  offset="0.9218" style="stop-color:#E86C58"/>
			<stop  offset="1" style="stop-color:#E86E5A"/>
		</linearGradient>
		<path class="st104" d="M511.3,185.7c0,24.7-27.4,47.3-27.4,47.3s-27.4-54.2-27.4-78.9c0-17.3,12.2-24.3,27.4-15.6
			C499.1,147.2,511.3,168.3,511.3,185.7z"/>
		<radialGradient id="SVGID_85_" cx="497.5942" cy="168.4188" r="38.5507" gradientUnits="userSpaceOnUse">
			<stop  offset="0" style="stop-color:#E45D4A"/>
			<stop  offset="1" style="stop-color:#000000"/>
		</radialGradient>
		<path class="st105" d="M485.7,137.5c-7.9-4.6-15-4.8-20-1.5c4.8-2.2,11.2-1.6,18.2,2.5c15.1,8.7,27.4,29.9,27.4,47.2
			c0,21.1-20.1,40.8-25.8,46c0.1,0.2,0.2,0.4,0.2,0.4s27.4-22.6,27.4-47.3C513.1,167.4,500.8,146.3,485.7,137.5z"/>
		
			<linearGradient id="SVGID_86_" gradientUnits="userSpaceOnUse" x1="-4.5732" y1="2138.3687" x2="-22.2309" y2="2125.0203" gradientTransform="matrix(0.866 0.5 0 1.1547 495.4557 -2285.0708)">
			<stop  offset="3.535350e-02" style="stop-color:#FDF7F7"/>
			<stop  offset="1" style="stop-color:#EEEBF2"/>
		</linearGradient>
		<path class="st106" d="M493.9,175.6c0,6.3-4.5,8.9-10,5.7c-5.5-3.2-10-10.9-10-17.2s4.5-8.9,10-5.7
			C489.5,161.6,493.9,169.3,493.9,175.6z"/>
		<linearGradient id="SVGID_87_" gradientUnits="userSpaceOnUse" x1="474.0095" y1="169.9024" x2="492.0377" y2="169.9024">
			<stop  offset="3.535350e-02" style="stop-color:#CD5542"/>
			<stop  offset="0.6368" style="stop-color:#DC6350"/>
			<stop  offset="1" style="stop-color:#E86E5A"/>
		</linearGradient>
		<path class="st107" d="M487,179.9c-5.5-3.2-10-10.9-10-17.2c0-2.5,0.7-4.4,1.9-5.6c-3,0.3-5,2.8-5,7c0,6.3,4.5,14,10,17.2
			c3.3,1.9,6.3,1.7,8.1-0.1C490.6,181.4,488.9,181,487,179.9z"/>
	</g>
	<g>
		<linearGradient id="SVGID_88_" gradientUnits="userSpaceOnUse" x1="601.0283" y1="318.9407" x2="551.4824" y2="291.605">
			<stop  offset="0" style="stop-color:#FFFFFF"/>
			<stop  offset="1" style="stop-color:#000000"/>
		</linearGradient>
		<path class="st108" d="M605.3,302.7l-17.9-14.6v46.6C587.4,334.7,610.4,306.9,605.3,302.7z"/>
	</g>
</g>
</svg>
