<svg width="0" height="0" class="hidden">
    <symbol xmlns="http://www.w3.org/2000/svg" width="25" height="7" viewBox="0 0 25 7" id="svg-logo">
        <circle cx="3.22848" cy="3.22848" r="3.22848" />
        <circle cx="12.5" cy="3.22848" r="3.22848" />
        <circle cx="21.7714" cy="3.22848" r="3.22848" />
    </symbol>
    <symbol  viewBox="0 0 20 20"  xmlns="http://www.w3.org/2000/svg" id="svg-user">
        <path
            d="M10.0313 11.6562C7.28131 11.6562 5.03131 9.40625 5.03131 6.65625C5.03131 3.90625 7.28131 1.65625 10.0313 1.65625C12.7813 1.65625 15.0313 3.90625 15.0313 6.65625C15.0313 9.40625 12.7813 11.6562 10.0313 11.6562ZM10.0313 3.34375C8.18756 3.34375 6.68756 4.84375 6.68756 6.6875C6.68756 8.53125 8.21881 10 10.0313 10C11.8438 10 13.3751 8.5 13.3751 6.65625C13.3751 4.8125 11.8751 3.34375 10.0313 3.34375Z"
           />
        <path
            d="M0.875036 18.3437C0.625036 18.3437 0.375037 18.25 0.218787 18C-0.124964 17.6562 -0.0312135 17.0937 0.312537 16.8437C3.06254 14.5938 6.46879 13.3438 10.0625 13.3438C13.6563 13.3438 17.0625 14.5938 19.7188 16.8437C20.0625 17.1875 20.125 17.6875 19.8125 18C19.4688 18.3437 18.9688 18.4062 18.6563 18.0937C16.2813 16.0937 13.2188 15 10.0313 15C6.84379 15 3.78129 16.0937 1.37504 18.1562C1.28129 18.25 1.03129 18.3437 0.875036 18.3437Z"
             />
    </symbol>
    <symbol viewBox="0 0 28 30" xmlns="http://www.w3.org/2000/svg" id="svg-cart">
        <path
            d="M11.3726 22.2308C13.4787 22.2308 15.2571 23.9625 15.2571 26.1154C15.2571 28.2683 13.5255 29.9999 11.3726 29.9999C9.2197 29.9999 7.48803 28.2683 7.48803 26.1154C7.48803 23.9625 9.2665 22.2308 11.3726 22.2308ZM11.3726 27.4726C12.1214 27.4726 12.7298 26.8642 12.7298 26.1154C12.7298 25.3666 12.1214 24.7581 11.3726 24.7581C10.6238 24.7581 10.0153 25.3666 10.0153 26.1154C10.0153 26.8174 10.6238 27.4726 11.3726 27.4726Z"
             />
        <path
            d="M20.359 22.2308C22.4651 22.2308 24.2436 23.9625 24.2436 26.1154C24.2436 28.2683 22.5119 29.9999 20.359 29.9999C18.2061 29.9999 16.4745 28.2683 16.4745 26.1154C16.4745 23.9625 18.253 22.2308 20.359 22.2308ZM20.359 27.4726C21.1079 27.4726 21.7163 26.8642 21.7163 26.1154C21.7163 25.3666 21.1079 24.7581 20.359 24.7581C19.6102 24.7581 19.0018 25.3666 19.0018 26.1154C19.0018 26.8174 19.6102 27.4726 20.359 27.4726Z"
             />
        <path
            d="M1.26364 0H4.86738C5.47581 0 5.99063 0.514821 6.13103 1.12324L7.16068 7.4883H25.741C26.2558 7.4883 26.8643 7.72231 27.0983 8.09672C27.4727 8.47114 27.6131 9.07956 27.3323 9.73479L24.4774 18.5803C24.337 19.4696 23.5881 19.9376 22.7457 19.9376H7.39468C6.78626 19.9376 6.27144 19.4228 6.13103 18.8144L3.88454 2.4805H1.26364C0.514807 2.4805 -1.33514e-05 1.96568 -1.33514e-05 1.21685C-1.33514e-05 0.468019 0.514807 0 1.26364 0ZM8.51793 17.4571H22.2309L24.7114 9.9688H7.48829L8.51793 17.4571Z"
             />
    </symbol>
    <symbol viewBox="0 0 34 30" xmlns="http://www.w3.org/2000/svg" id="svg-fav">
        <path
            d="M16.4165 30C15.5917 30 14.767 29.7423 14.2 29.0206L2.85977 16.8557C-0.129917 13.7113 -0.851566 8.91753 1.05565 5.05155C2.70513 1.90722 5.69482 0 9.14843 0C11.468 0 13.9422 0.979381 15.7464 2.8866L16.4165 3.5567L17.0866 2.8866C18.8907 0.979381 21.2103 0 23.6845 0C26.1587 0 28.4783 0.979381 30.2825 2.8866C32.0866 4.69072 33.0144 7.1134 33.0144 9.74227C33.0144 12.3711 32.035 14.7938 30.4371 16.5979L19.2 28.6082C18.8392 29.0206 18.4268 29.3299 17.9629 29.5876C17.4474 29.8454 16.9319 30 16.4165 30ZM16.3134 27.1134C16.468 27.268 16.468 27.268 16.468 27.268C16.6227 27.268 16.7258 27.0619 16.8288 26.9072L28.2206 14.6392C29.4577 13.2474 30.1278 11.4948 30.1278 9.69072C30.1278 7.78351 29.4577 5.97938 28.2206 4.74227C26.9835 3.35052 25.334 2.68041 23.5814 2.68041C21.7773 2.68041 20.1794 3.35052 18.9422 4.74227L16.3649 7.47423L13.7876 4.74227C12.5505 3.50516 10.901 2.83505 9.25152 2.83505C6.67421 2.8866 4.61235 4.2268 3.37524 6.4433C2.03503 9.17526 2.60204 12.732 4.81854 15.0515L16.3134 27.1134Z"/>
    </symbol>
    <symbol  viewBox="0 0 28 25"  xmlns="http://www.w3.org/2000/svg" id="svg-search">
        <path d="M26.8345 22.9522L19.5819 17.0648C22.6536 12.8413 22.1843 6.95393 18.43 3.19966C16.3823 1.10922 13.6519 0 10.7935 0C7.93515 0 5.24744 1.10922 3.19966 3.157C1.15188 5.20478 0 7.93515 0 10.7935C0 13.6519 1.15188 16.3823 3.19966 18.43C5.37543 20.6058 8.1058 21.6297 10.8362 21.6297C13.4386 21.6297 16.0836 20.7338 18.1314 18.7713L25.5119 24.7867C25.7253 25 25.9812 25 26.1945 25C26.5358 25 26.8771 24.872 27.0904 24.5307C27.4317 24.1041 27.4317 23.4215 26.8345 22.9522ZM10.7935 19.3259C8.53242 19.3259 6.35666 18.43 4.77816 16.8089C3.19966 15.2304 2.26109 13.0546 2.26109 10.7935C2.26109 8.53242 3.157 6.35666 4.77816 4.77816C6.39932 3.19966 8.53242 2.26109 10.7935 2.26109C13.0546 2.26109 15.2304 3.157 16.8089 4.77816C18.3874 6.39932 19.3259 8.53242 19.3259 10.7935C19.3259 13.0546 18.43 15.2304 16.8089 16.8089C15.2304 18.43 13.0973 19.3259 10.7935 19.3259Z"/>
    </symbol>
    <symbol  viewBox="0 0 7 14"  xmlns="http://www.w3.org/2000/svg" id="svg-arrow">
        <path d="M6.71544 6.23741L1.04438 0.180398C0.806285 -0.0601328 0.459961 -0.0601328 0.243509 0.180398C0.00541115 0.420929 0.00541115 0.770793 0.243509 0.989457L5.84963 7.00273L0.178573 13.016C-0.0595244 13.2565 -0.0595244 13.6064 0.178573 13.8251C0.2868 13.9344 0.416671 14 0.589833 14C0.762995 14 0.871221 13.9344 1.00109 13.8251L6.6505 7.76806C7.10505 7.3526 7.10505 6.65287 6.71544 6.23741Z" />
    </symbol>
    <symbol viewBox="0 0 15 15" fill="none" xmlns="http://www.w3.org/2000/svg" id="svg-tel">
        <path d="M14.5722 10.5995L11.2909 9.19326C11.1507 9.13352 10.995 9.12093 10.847 9.15739C10.6991 9.19385 10.567 9.27738 10.4706 9.39541L9.01744 11.1708C6.73686 10.0956 4.90151 8.26021 3.82624 5.97963L5.60166 4.52647C5.71993 4.43028 5.80364 4.29818 5.84011 4.15016C5.87659 4.00215 5.86385 3.84628 5.80381 3.70615L4.39754 0.42484C4.33165 0.273785 4.21512 0.150453 4.06805 0.0761123C3.92097 0.00177107 3.75256 -0.0189204 3.59186 0.0176058L0.544932 0.720743C0.389998 0.756521 0.251766 0.843757 0.152796 0.968214C0.0538267 1.09267 -3.56904e-05 1.247 1.77431e-08 1.40601C1.77431e-08 8.92079 6.09093 15 13.594 15C13.7531 15.0001 13.9074 14.9463 14.032 14.8473C14.1565 14.7483 14.2438 14.6101 14.2796 14.4551L14.9827 11.4081C15.019 11.2467 14.9978 11.0776 14.9229 10.93C14.848 10.7824 14.724 10.6656 14.5722 10.5995Z" fill="white"/>
    </symbol>
    <symbol viewBox="0 0 20 15" fill="none" xmlns="http://www.w3.org/2000/svg" id="svg-email">
        <path d="M19.6211 4.95312C19.7734 4.83203 20 4.94531 20 5.13672V13.125C20 14.1602 19.1602 15 18.125 15H1.875C0.839844 15 0 14.1602 0 13.125V5.14062C0 4.94531 0.222656 4.83594 0.378906 4.95703C1.25391 5.63672 2.41406 6.5 6.39844 9.39453C7.22266 9.99609 8.61328 11.2617 10 11.2539C11.3945 11.2656 12.8125 9.97266 13.6055 9.39453C17.5898 6.5 18.7461 5.63281 19.6211 4.95312ZM10 10C10.9062 10.0156 12.2109 8.85938 12.8672 8.38281C18.0508 4.62109 18.4453 4.29297 19.6406 3.35547C19.8672 3.17969 20 2.90625 20 2.61719V1.875C20 0.839844 19.1602 0 18.125 0H1.875C0.839844 0 0 0.839844 0 1.875V2.61719C0 2.90625 0.132812 3.17578 0.359375 3.35547C1.55469 4.28906 1.94922 4.62109 7.13281 8.38281C7.78906 8.85938 9.09375 10.0156 10 10Z" fill="white"/>
    </symbol>
    <symbol  viewBox="0 0 30 30"  xmlns="http://www.w3.org/2000/svg" id="svg-whatsapp">
        <path d="M25.5937 4.35938C22.7812 1.54688 19.0312 0 15.0468 0C6.89056 0 0.187439 6.65625 0.187439 14.8594C0.187439 17.4844 0.890564 20.0156 2.15619 22.3125L0.046814 30L7.96869 27.9375C10.1249 29.1094 12.5624 29.7656 15.0937 29.7656C23.2968 29.7188 29.9531 23.0625 29.9531 14.8594C29.9531 10.9219 28.3593 7.17188 25.5937 4.35938ZM15.0468 27.2344C12.8437 27.2344 10.6406 26.625 8.71869 25.5L8.24994 25.2188L3.56244 26.4375L4.82806 21.8906L4.54681 21.4219C3.32806 19.4531 2.67181 17.1562 2.67181 14.8594C2.67181 8.0625 8.20306 2.53125 15.0468 2.53125C18.3281 2.53125 21.4687 3.84375 23.7656 6.14062C26.0624 8.4375 27.3749 11.5781 27.3749 14.9062C27.4218 21.7031 21.8906 27.2344 15.0468 27.2344ZM21.8437 18C21.4687 17.8125 19.6406 16.9219 19.2656 16.8281C18.9374 16.6875 18.6562 16.6406 18.4218 17.0156C18.1874 17.3906 17.4374 18.1875 17.2499 18.4688C17.0156 18.7031 16.8281 18.75 16.4531 18.5625C16.0781 18.375 14.9062 18 13.4531 16.6875C12.3749 15.7031 11.5781 14.4844 11.3906 14.1094C11.1562 13.7344 11.3437 13.5469 11.5781 13.3594C11.7656 13.1719 11.9531 12.9375 12.1406 12.7031C12.3281 12.4688 12.3749 12.3281 12.5156 12.0938C12.6562 11.8594 12.5624 11.625 12.4687 11.4375C12.3749 11.25 11.6249 9.42188 11.2968 8.67188C11.0156 7.92188 10.6874 8.0625 10.4531 8.0625C10.2187 8.0625 9.98431 8.0625 9.74994 8.0625C9.51556 8.0625 9.09369 8.15625 8.76556 8.53125C8.43744 8.90625 7.45306 9.79688 7.45306 11.625C7.45306 13.4531 8.76556 15.1875 8.99994 15.4688C9.18744 15.7031 11.6249 19.5 15.3281 21.0938C16.2187 21.4688 16.9218 21.7031 17.4374 21.8906C18.3281 22.1719 19.1249 22.125 19.7812 22.0312C20.5312 21.9375 21.9843 21.1406 22.3124 20.25C22.5937 19.4062 22.5937 18.6094 22.5468 18.4688C22.4531 18.2344 22.2187 18.1406 21.8437 18Z" />
    </symbol>
    <symbol viewBox="0 0 27 21"  xmlns="http://www.w3.org/2000/svg" id="svg-home">
        <path d="M26.5638 10.0968L15.0864 0.60837C14.6172 0.215259 14.026 0 13.4154 0C12.8048 0 12.2136 0.215259 11.7444 0.60837L0.26699 10.0968C0.191921 10.16 0.129963 10.2375 0.0846529 10.3248C0.0393429 10.4121 0.011569 10.5076 0.00291708 10.6057C-0.00573485 10.7038 0.00490467 10.8027 0.0342281 10.8967C0.0635515 10.9906 0.110985 11.0779 0.173818 11.1534L0.650859 11.73C0.77773 11.8824 0.959552 11.9779 1.15636 11.9955C1.35317 12.0131 1.54887 11.9513 1.70044 11.8238L2.98016 10.7662V19.4999C2.98126 19.8974 3.13868 20.2783 3.41801 20.5594C3.69734 20.8405 4.07587 20.9989 4.47091 21H10.4339C10.8289 20.9989 11.2075 20.8405 11.4868 20.5594C11.7661 20.2783 11.9235 19.8974 11.9247 19.4999V14.6247H14.9062V19.4999C14.9073 19.8974 15.0647 20.2783 15.344 20.5594C15.6233 20.8405 16.0019 20.9989 16.3969 21H22.3599C22.7531 20.9992 23.1301 20.8424 23.4092 20.5637C23.6882 20.285 23.8469 19.9068 23.8507 19.5112V10.7653L25.1332 11.8256C25.2847 11.9532 25.4804 12.015 25.6772 11.9974C25.8741 11.9798 26.0559 11.8843 26.1827 11.7319L26.6593 11.1558C26.7224 11.08 26.7699 10.9925 26.7993 10.8982C26.8286 10.8039 26.8392 10.7047 26.8303 10.6063C26.8214 10.5079 26.7933 10.4122 26.7476 10.3248C26.7018 10.2374 26.6394 10.1599 26.5638 10.0968ZM21.6075 18.7499H17.1423V13.8746C17.1412 13.4771 16.9838 13.0962 16.7044 12.8152C16.4251 12.5341 16.0466 12.3757 15.6515 12.3746H11.1793C10.7842 12.3757 10.4057 12.5341 10.1264 12.8152C9.84705 13.0962 9.68964 13.4771 9.68853 13.8746V18.7499H5.21628V8.91831L13.4154 2.13891L21.6145 8.9155L21.6075 18.7499Z"/>
    </symbol>
    <symbol  viewBox="0 0 29 20" fill="none" xmlns="http://www.w3.org/2000/svg" id="svg-burger">
        <rect width="28.5714" height="2.85714" rx="1" fill="white"/>
        <rect y="5.71423" width="28.5714" height="2.85714" rx="1" fill="white"/>
        <rect y="11.4286" width="28.5714" height="2.85714" rx="1" fill="white"/>
        <rect y="17.1428" width="28.5714" height="2.85714" rx="1" fill="white"/>
    </symbol>
    <symbol viewBox="0 0 10 12"  xmlns="http://www.w3.org/2000/svg" id="svg-cart-delete">
        <path d="M8.65728 1.55869H6.77934C6.66667 0.676056 5.95305 0 5.01408 0H4.43193C3.49296 0 2.76056 0.676056 2.66667 1.55869H0.732394C0.319249 1.55869 0 1.87793 0 2.29108L0.469484 10.1221C0.525822 11.1737 1.40845 12 2.46009 12H6.89202C7.94366 12 8.82629 11.2113 8.92019 10.1221L9.38967 2.29108C9.38967 1.87793 9.07042 1.55869 8.65728 1.55869ZM4.43193 1.03286H5.01408C5.33333 1.03286 5.59624 1.23944 5.69014 1.55869H3.69953C3.81221 1.23944 4.07512 1.03286 4.43193 1.03286ZM7.86855 10.0657C7.81221 10.5915 7.39906 10.9484 6.87324 10.9484H2.46009C1.93427 10.9484 1.52113 10.5915 1.52113 10.0657L1.10798 2.61033H8.35681L7.86855 10.0657Z" />
        <path d="M5.74658 5.20185V7.81218C5.74658 8.13142 5.95316 8.338 6.2724 8.338C6.59165 8.338 6.79823 8.13142 6.79823 7.81218V5.20185C6.79823 4.8826 6.59165 4.67603 6.2724 4.67603C5.95316 4.67603 5.74658 4.90138 5.74658 5.20185Z" />
        <path d="M3.13617 4.69482C2.81692 4.69482 2.61035 4.9014 2.61035 5.22065V7.83097C2.61035 8.15022 2.81692 8.3568 3.13617 8.3568C3.45542 8.3568 3.66199 8.15022 3.66199 7.83097V5.20187C3.64322 4.9014 3.43664 4.69482 3.13617 4.69482Z" />
        <path d="M4.69477 4.16895C4.37552 4.16895 4.16895 4.37552 4.16895 4.69477V8.33796C4.16895 8.65721 4.37552 8.86378 4.69477 8.86378C5.01402 8.86378 5.22059 8.65721 5.22059 8.33796V4.69477C5.22059 4.37552 5.01402 4.16895 4.69477 4.16895Z" />
    </symbol>
    <symbol width="6" height="5" viewBox="0 0 6 5" fill="none" xmlns="http://www.w3.org/2000/svg" id="svg-checkbox-active">
        <path d="M5.92591 0.992042L2.32241 4.92014C2.22417 5.02722 2.06553 5.02653 1.96809 4.91858L0.072669 2.81884C-0.0247736 2.71089 -0.0241472 2.53656 0.0741097 2.42946L0.548461 1.91239C0.646697 1.80531 0.805337 1.806 0.902779 1.91398L2.15118 3.29697L5.10248 0.0798586C5.20072 -0.0272209 5.35935 -0.0265324 5.4568 0.081419L5.92733 0.60266C6.02477 0.710634 6.02414 0.884962 5.92591 0.992042Z" fill="white"/>
    </symbol>
    <symbol  viewBox="0 0 11 7"  xmlns="http://www.w3.org/2000/svg" id="svg-arrow-down">
        <path d="M6.09918 6.71544L10.8583 1.04438C11.0472 0.806285 11.0472 0.459961 10.8583 0.243509C10.6693 0.00541114 10.3944 0.00541113 10.2226 0.243509L5.49785 5.84963L0.773135 0.178573C0.584147 -0.0595249 0.309254 -0.0595249 0.137446 0.178573C0.0515423 0.286799 -1.82133e-08 0.41667 -2.57824e-08 0.589832C-3.33516e-08 0.762994 0.0515422 0.871221 0.137446 1.00109L4.89652 6.6505C5.22296 7.10505 5.77274 7.10505 6.09918 6.71544Z" />
    </symbol>
    <symbol  viewBox="0 0 20 20" fill="none" xmlns="http://www.w3.org/2000/svg" id="svg-edit">
        <path d="M19.2676 2.19766L17.8024 0.732422C17.3145 0.244141 16.6746 0 16.0348 0C15.395 0 14.7551 0.244141 14.2668 0.732031L0.501992 14.4969L0.00589837 18.9586C-0.0566016 19.5203 0.385976 20 0.935586 20C0.970351 20 1.00512 19.998 1.04066 19.9941L5.49926 19.5016L19.268 5.73281C20.2442 4.75664 20.2442 3.17383 19.2676 2.19766ZM4.92543 18.3078L1.29145 18.7105L1.69613 15.0711L12.0043 4.76289L15.2375 7.99609L4.92543 18.3078ZM18.384 4.84922L16.1211 7.11211L12.8879 3.87891L15.1508 1.61602C15.3868 1.38008 15.7008 1.25 16.0348 1.25C16.3688 1.25 16.6825 1.38008 16.9188 1.61602L18.384 3.08125C18.8711 3.56875 18.8711 4.36172 18.384 4.84922Z" fill="#EA6D56"/>
    </symbol>
    <symbol  viewBox="0 0 17 17" fill="none" xmlns="http://www.w3.org/2000/svg" id="svg-exit">
        <path d="M6 16H2.66667C2.22464 16 1.80072 15.8244 1.48816 15.5118C1.17559 15.1993 1 14.7754 1 14.3333V2.66667C1 2.22464 1.17559 1.80072 1.48816 1.48816C1.80072 1.17559 2.22464 1 2.66667 1H6M11.8333 12.6667L16 8.5M16 8.5L11.8333 4.33333M16 8.5H6" stroke-width="1.5" stroke-linecap="round" stroke-linejoin="round"/>
    </symbol>
    <symbol  viewBox="0 0 33 25" fill="none" xmlns="http://www.w3.org/2000/svg" id="svg-payment-card-1">
        <path d="M29.4261 0H2.6751C1.19822 0 0 1.19978 0 2.67857V22.3214C0 23.8002 1.19822 25 2.6751 25H29.4261C30.9029 25 32.1012 23.8002 32.1012 22.3214V2.67857C32.1012 1.19978 30.9029 0 29.4261 0ZM2.6751 1.78571H29.4261C29.9165 1.78571 30.3178 2.1875 30.3178 2.67857V5.35714H1.7834V2.67857C1.7834 2.1875 2.18466 1.78571 2.6751 1.78571ZM29.4261 23.2143H2.6751C2.18466 23.2143 1.7834 22.8125 1.7834 22.3214V10.7143H30.3178V22.3214C30.3178 22.8125 29.9165 23.2143 29.4261 23.2143ZM10.7004 18.5268V18.9732C10.7004 19.3415 10.3994 19.6429 10.0316 19.6429H6.01897C5.65114 19.6429 5.35019 19.3415 5.35019 18.9732V18.5268C5.35019 18.1585 5.65114 17.8571 6.01897 17.8571H10.0316C10.3994 17.8571 10.7004 18.1585 10.7004 18.5268ZM21.4008 18.5268V18.9732C21.4008 19.3415 21.0998 19.6429 20.732 19.6429H13.1526C12.7847 19.6429 12.4838 19.3415 12.4838 18.9732V18.5268C12.4838 18.1585 12.7847 17.8571 13.1526 17.8571H20.732C21.0998 17.8571 21.4008 18.1585 21.4008 18.5268Z" fill="white"/>
    </symbol>
    <symbol  viewBox="0 0 42 25" fill="none" xmlns="http://www.w3.org/2000/svg" id="svg-payment-card-2">
        <path d="M39.5833 0H2.08333C0.93099 0 0 0.93099 0 2.08333V22.9167C0 24.069 0.93099 25 2.08333 25H39.5833C40.7357 25 41.6667 24.069 41.6667 22.9167V2.08333C41.6667 0.93099 40.7357 0 39.5833 0ZM2.08333 2.08333H6.25C6.25 4.38151 4.38151 6.25 2.08333 6.25V2.08333ZM2.08333 22.9167V18.75C4.38151 18.75 6.25 20.6185 6.25 22.9167H2.08333ZM39.5833 22.9167H35.4167C35.4167 20.6185 37.2852 18.75 39.5833 18.75V22.9167ZM39.5833 16.6667C36.1393 16.6667 33.3333 19.4727 33.3333 22.9167H8.33333C8.33333 19.4727 5.52734 16.6667 2.08333 16.6667V8.33333C5.52734 8.33333 8.33333 5.52734 8.33333 2.08333H33.3333C33.3333 5.52734 36.1393 8.33333 39.5833 8.33333V16.6667ZM39.5833 6.25C37.2852 6.25 35.4167 4.38151 35.4167 2.08333H39.5833V6.25ZM20.8333 4.16667C16.8034 4.16667 13.5417 7.89714 13.5417 12.5C13.5417 17.1029 16.8034 20.8333 20.8333 20.8333C24.8568 20.8333 28.125 17.1029 28.125 12.5C28.125 7.89714 24.8633 4.16667 20.8333 4.16667ZM20.8333 18.75C17.9622 18.75 15.625 15.944 15.625 12.5C15.625 9.05599 17.9622 6.25 20.8333 6.25C23.7044 6.25 26.0417 9.05599 26.0417 12.5C26.0417 15.944 23.7044 18.75 20.8333 18.75ZM22.9167 14.5898H21.875V8.86068C21.875 8.57422 21.6406 8.33984 21.3542 8.33984H20.4622C20.1562 8.33984 19.8503 8.43099 19.5964 8.60026L18.6003 9.26432C18.3594 9.42708 18.3008 9.74609 18.457 9.98698L19.0365 10.8529C19.1992 11.0937 19.5182 11.1523 19.7591 10.9961L19.7917 10.9766V14.5833H18.75C18.4635 14.5833 18.2292 14.8177 18.2292 15.1042V16.1458C18.2292 16.4323 18.4635 16.6667 18.75 16.6667H22.9167C23.2031 16.6667 23.4375 16.4323 23.4375 16.1458V15.1042C23.4375 14.8177 23.2031 14.5833 22.9167 14.5898Z" fill="white"/>
    </symbol>
    <symbol  viewBox="0 0 35 28" fill="none" xmlns="http://www.w3.org/2000/svg" id="svg-payment-card-3">
        <path d="M26.4084 20.9996H28.7189C28.9497 20.9996 29.1711 20.9074 29.3343 20.7433C29.4975 20.5792 29.5892 20.3566 29.5892 20.1245V17.8023C29.5892 17.5725 29.5442 17.3449 29.4568 17.1325C29.3693 16.9202 29.2412 16.7272 29.0795 16.5647L16.4916 3.90701L12.5917 7.82835L25.1775 20.4866C25.3391 20.6492 25.531 20.7782 25.7422 20.8662C25.9534 20.9542 26.1797 20.9995 26.4084 20.9996ZM11.3625 6.59233L15.2624 2.66552L12.9888 0.381083C12.7434 0.13694 12.4121 0 12.0668 0C11.7216 0 11.3903 0.13694 11.1449 0.381083L9.08345 2.45223C8.84098 2.69807 8.70492 3.03027 8.70492 3.37651C8.70492 3.72274 8.84098 4.05495 9.08345 4.30078L11.3625 6.59233ZM6.96216 20.1245C6.96216 20.3566 7.05385 20.5792 7.21706 20.7433C7.38027 20.9074 7.60162 20.9996 7.83243 20.9996H23.2253L20.6145 18.3744H7.83243C7.60162 18.3744 7.38027 18.4666 7.21706 18.6307C7.05385 18.7948 6.96216 19.0174 6.96216 19.2495V20.1245ZM33.0703 6.99869H22.0287L24.6395 9.62385H32.2V25.3748H2.61081V9.62385H11.9156L11.3608 9.066L10.1316 7.82999L9.30482 6.99869H1.74054C1.27892 6.99869 0.836207 7.18307 0.509793 7.51128C0.183378 7.83949 0 8.28464 0 8.7488L0 26.2499C0 26.714 0.183378 27.1592 0.509793 27.4874C0.836207 27.8156 1.27892 28 1.74054 28H33.0703C33.5319 28 33.9746 27.8156 34.301 27.4874C34.6274 27.1592 34.8108 26.714 34.8108 26.2499V8.7488C34.8108 8.28464 34.6274 7.83949 34.301 7.51128C33.9746 7.18307 33.5319 6.99869 33.0703 6.99869ZM7.83243 16.6243H18.874L16.2632 13.9991H7.83243C7.60162 13.9991 7.38027 14.0913 7.21706 14.2554C7.05385 14.4195 6.96216 14.6421 6.96216 14.8742V15.7492C6.96216 15.9813 7.05385 16.2039 7.21706 16.368C7.38027 16.5321 7.60162 16.6243 7.83243 16.6243Z" fill="white"/>
    </symbol>
    <symbol  viewBox="0 0 13 17" xmlns="http://www.w3.org/2000/svg" id="svg-map">
        <path d="M6.375 3.1875C4.61739 3.1875 3.1875 4.61739 3.1875 6.375C3.1875 8.13261 4.61739 9.5625 6.375 9.5625C8.13261 9.5625 9.5625 8.13261 9.5625 6.375C9.5625 4.61739 8.13261 3.1875 6.375 3.1875ZM6.375 8.5C5.20326 8.5 4.25 7.54674 4.25 6.375C4.25 5.20326 5.20326 4.25 6.375 4.25C7.54674 4.25 8.5 5.20326 8.5 6.375C8.5 7.54674 7.54674 8.5 6.375 8.5ZM6.375 0C2.85417 0 0 2.85417 0 6.375C0 8.94536 0.895488 9.66314 5.71984 16.657C6.0364 17.1143 6.71357 17.1144 7.0302 16.657C11.8545 9.66314 12.75 8.94536 12.75 6.375C12.75 2.85417 9.89583 0 6.375 0ZM6.375 15.736C1.74997 9.04746 1.0625 8.51641 1.0625 6.375C1.0625 4.95597 1.6151 3.6219 2.6185 2.6185C3.6219 1.6151 4.95597 1.0625 6.375 1.0625C7.79403 1.0625 9.1281 1.6151 10.1315 2.6185C11.1349 3.6219 11.6875 4.95597 11.6875 6.375C11.6875 8.51627 11.0005 9.04686 6.375 15.736Z" />
    </symbol>
    <symbol  viewBox="0 0 8 12" fill="none" xmlns="http://www.w3.org/2000/svg" id="svg-breadcrumb-arrow">
        <path d="M0.310421 6.65365L6.49703 11.8454C6.75677 12.0515 7.13458 12.0515 7.37071 11.8454C7.63045 11.6392 7.63045 11.3393 7.37071 11.1519L1.25494 5.99766L7.44155 0.843421C7.70129 0.637252 7.70129 0.337368 7.44155 0.149941C7.32348 0.0562286 7.1818 -3.9738e-08 6.9929 -5.62525e-08C6.804 -7.27671e-08 6.68593 0.0562286 6.54425 0.149941L0.38126 5.34166C-0.114613 5.69777 -0.114613 6.29754 0.310421 6.65365Z" fill="white"/>
    </symbol>
    <symbol viewBox="0 0 10 10" xmlns="http://www.w3.org/2000/svg" id="svg-filter">
        <path d="M9.95312 0.328125C9.86713 0.125 9.62635 0 9.35118 0H0.648823C0.425245 0 0.184469 0.125 0.046882 0.328125C-0.0391096 0.5 -0.00471298 0.75 0.132874 0.921875L3.17698 4.10938V9.46875C3.17698 9.67188 3.26297 9.84375 3.45215 9.92188C3.53814 9.96875 3.67573 10 3.77892 10C3.91651 10 4.0025 9.95312 4.14008 9.92188L6.54785 8.53125L6.63384 8.48438C6.82302 8.3125 6.85742 8.15625 6.85742 8.0625V4.0625L9.86713 0.921875C10.0047 0.796875 10.0391 0.546875 9.95312 0.328125ZM6.13509 3.59375C5.94591 3.76562 5.94591 3.92188 5.94591 4.01562V7.95312L4.10569 9V4.01562C4.10569 3.89062 4.05409 3.76562 3.9681 3.64062L1.28516 0.84375H8.74924L6.13509 3.59375Z" />
    </symbol>

</svg>